SplineFontDB: 3.0
FontName: Robotica
FullName: Robotica
FamilyName: Robotica
Weight: Book
Copyright: Copyright (c) 2011 by Courtney Novits. All rights reserved.
Version: 1.000
ItalicAngle: 0
UnderlinePosition: -50
UnderlineWidth: 50
Ascent: 1536
Descent: 512
sfntRevision: 0x00010000
LayerCount: 2
Layer: 0 1 "Back"  1
Layer: 1 1 "Fore"  0
XUID: [1021 184 12475 12721]
FSType: 4
OS2Version: 3
OS2_WeightWidthSlopeOnly: 0
OS2_UseTypoMetrics: 1
CreationTime: 1317699300
ModificationTime: 1431431685
PfmFamily: 17
TTFWeight: 400
TTFWidth: 5
LineGap: 0
VLineGap: 0
Panose: 2 0 0 0 0 0 0 0 0 0
OS2TypoAscent: 1536
OS2TypoAOffset: 0
OS2TypoDescent: -512
OS2TypoDOffset: 0
OS2TypoLinegap: 0
OS2WinAscent: 1794
OS2WinAOffset: 0
OS2WinDescent: 506
OS2WinDOffset: 0
HheadAscent: 1536
HheadAOffset: 0
HheadDescent: -512
HheadDOffset: 0
OS2SubXSize: 1434
OS2SubYSize: 1331
OS2SubXOff: 0
OS2SubYOff: 287
OS2SupXSize: 1434
OS2SupYSize: 1331
OS2SupXOff: 0
OS2SupYOff: 977
OS2StrikeYSize: 102
OS2StrikeYPos: 512
OS2Vendor: 'pyrs'
OS2CodePages: 0000000f.00000000
OS2UnicodeRanges: 80000003.08000000.14000000.00000000
Lookup: 258 0 0 "'kern' Horizontal Kerning in Latin lookup 0"  {"'kern' Horizontal Kerning in Latin lookup 0 subtable"  } ['kern' ('DFLT' <'dflt' > 'latn' <'dflt' > ) ]
DEI: 91125
TtTable: prep
PUSHW_1
 0
CALL
EndTTInstrs
TtTable: fpgm
PUSHW_1
 0
FDEF
MPPEM
PUSHW_1
 9
LT
IF
PUSHB_2
 1
 1
INSTCTRL
EIF
PUSHW_1
 511
SCANCTRL
PUSHW_1
 68
SCVTCI
PUSHW_2
 9
 3
SDS
SDB
ENDF
PUSHW_1
 1
FDEF
DUP
DUP
RCVT
ROUND[Black]
WCVTP
PUSHB_1
 1
ADD
ENDF
PUSHW_1
 2
FDEF
PUSHW_1
 1
LOOPCALL
POP
ENDF
PUSHW_1
 3
FDEF
DUP
GC[cur]
PUSHB_1
 3
CINDEX
GC[cur]
GT
IF
SWAP
EIF
DUP
ROLL
DUP
ROLL
MD[grid]
ABS
ROLL
DUP
GC[cur]
DUP
ROUND[Grey]
SUB
ABS
PUSHB_1
 4
CINDEX
GC[cur]
DUP
ROUND[Grey]
SUB
ABS
GT
IF
SWAP
NEG
ROLL
EIF
MDAP[rnd]
DUP
PUSHB_1
 0
GTEQ
IF
ROUND[Black]
DUP
PUSHB_1
 0
EQ
IF
POP
PUSHB_1
 64
EIF
ELSE
ROUND[Black]
DUP
PUSHB_1
 0
EQ
IF
POP
PUSHB_1
 64
NEG
EIF
EIF
MSIRP[no-rp0]
ENDF
PUSHW_1
 4
FDEF
DUP
GC[cur]

StartChar: exclam
Encoding: 33 33 4
Width: 540
Flags: W
LayerCount: 2
Fore
SplineSet
420 505 m 1,0,-1
 0 505 l 1,1,-1
 0 1597 l 1,2,-1
 420 1597 l 1,3,-1
 420 505 l 1,0,-1
420 342 m 1,4,-1
 0 342 l 1,5,-1
 0 0 l 1,6,-1
 118 0 l 1,7,-1
 118 1 l 1,8,9
 181 3 181 3 236 28.5 c 128,-1,10
 291 54 291 54 332 96.5 c 128,-1,11
 373 139 373 139 396.5 195 c 128,-1,12
 420 251 420 251 420 314 c 2,13,-1
 420 342 l 1,4,-1
EndSplineSet
EndChar

StartChar: dollar
Encoding: 36 36 5
Width: 1800
Flags: W
LayerCount: 2
Fore
SplineSet
1021 1289 m 1,0,-1
 1021 1050 l 1,1,-1
 1386 1050 l 2,2,3
 1450 1050 1450 1050 1507.5 1025.5 c 128,-1,4
 1565 1001 1565 1001 1607.5 958 c 128,-1,5
 1650 915 1650 915 1675 858 c 128,-1,6
 1700 801 1700 801 1700 737 c 2,7,-1
 1700 511 l 2,8,9
 1700 446 1700 446 1675 389 c 128,-1,10
 1650 332 1650 332 1607.5 289 c 128,-1,11
 1565 246 1565 246 1507.5 221.5 c 128,-1,12
 1450 197 1450 197 1386 197 c 2,13,-1
 1021 197 l 1,14,-1
 1021 0 l 1,15,-1
 679 0 l 1,16,-1
 679 197 l 1,17,-1
 314 197 l 2,18,19
 249 197 249 197 192 221.5 c 128,-1,20
 135 246 135 246 92 289 c 128,-1,21
 49 332 49 332 24.5 389 c 128,-1,22
 0 446 0 446 0 511 c 2,23,-1
 0 539 l 1,24,-1
 679 539 l 1,25,-1
 679 777 l 1,26,-1
 416 777 l 1,27,-1
 281 777 l 1,28,29
 231 780 231 780 186 800 c 128,-1,30
 141 820 141 820 105 852.5 c 128,-1,31
 69 885 69 885 43.5 928.5 c 128,-1,32
 18 972 18 972 8 1023 c 0,33,34
 7 1024 7 1024 7 1025 c 256,35,36
 7 1026 7 1026 6.5 1027.5 c 128,-1,37
 6 1029 6 1029 6 1031 c 0,38,39
 5 1046 5 1046 4.5 1082 c 128,-1,40
 4 1118 4 1118 3 1155 c 128,-1,41
 2 1192 2 1192 1.5 1220.5 c 128,-1,42
 1 1249 1 1249 0 1249 c 1,43,-1
 0 1316 l 2,44,45
 0 1381 0 1381 24.5 1438 c 128,-1,46
 49 1495 49 1495 92 1538 c 128,-1,47
 135 1581 135 1581 192 1605.5 c 128,-1,48
 249 1630 249 1630 314 1630 c 2,49,-1
 679 1630 l 1,50,-1
 679 1794 l 1,51,-1
 1021 1794 l 1,52,-1
 1021 1630 l 1,53,-1
 1386 1630 l 2,54,55
 1450 1630 1450 1630 1507.5 1605.5 c 128,-1,56
 1565 1581 1565 1581 1607.5 1538 c 128,-1,57
 1650 1495 1650 1495 1675 1438 c 128,-1,58
 1700 1381 1700 1381 1700 1316 c 2,59,-1
 1700 1289 l 1,60,-1
 1021 1289 l 1,0,-1
679 1289 m 1,61,-1
 420 1289 l 1,62,-1
 420 1050 l 1,63,-1
 679 1050 l 1,64,-1
 679 1289 l 1,61,-1
1021 777 m 1,65,-1
 1021 539 l 1,66,-1
 1289 539 l 1,67,-1
 1289 777 l 1,68,-1
 1021 777 l 1,65,-1
EndSplineSet
EndChar

StartChar: percent
Encoding: 37 37 6
Width: 2140
Flags: W
LayerCount: 2
Fore
SplineSet
94 0 m 1,0,-1
 1410 1597 l 1,1,-1
 1954 1597 l 1,2,-1
 638 0 l 1,3,-1
 94 0 l 1,0,-1
492 1597 m 2,4,-1
 307 1597 l 2,5,6
 244 1597 244 1597 188 1572.5 c 128,-1,7
 132 1548 132 1548 90 1506 c 128,-1,8
 48 1464 48 1464 24 1408 c 128,-1,9
 0 1352 0 1352 0 1289 c 2,10,-1
 0 1105 l 2,11,12
 0 1042 0 1042 24 986 c 128,-1,13
 48 930 48 930 90 888 c 128,-1,14
 132 846 132 846 188 822 c 128,-1,15
 244 798 244 798 307 798 c 2,16,-1
 492 798 l 2,17,18
 555 798 555 798 611 822 c 128,-1,19
 667 846 667 846 708.5 888 c 128,-1,20
 750 930 750 930 774.5 986 c 128,-1,21
 799 1042 799 1042 799 1105 c 2,22,-1
 799 1289 l 2,23,24
 799 1352 799 1352 774.5 1408 c 128,-1,25
 750 1464 750 1464 708.5 1506 c 128,-1,26
 667 1548 667 1548 611 1572.5 c 128,-1,27
 555 1597 555 1597 492 1597 c 2,4,-1
557 1040 m 1,28,-1
 242 1040 l 1,29,-1
 242 1355 l 1,30,-1
 557 1355 l 1,31,-1
 557 1040 l 1,28,-1
1741 805 m 2,32,-1
 1557 805 l 2,33,34
 1493 805 1493 805 1437 781 c 128,-1,35
 1381 757 1381 757 1339.5 715.5 c 128,-1,36
 1298 674 1298 674 1274 618 c 128,-1,37
 1250 562 1250 562 1250 498 c 2,38,-1
 1250 314 l 2,39,40
 1250 251 1250 251 1274 195 c 128,-1,41
 1298 139 1298 139 1339.5 97 c 128,-1,42
 1381 55 1381 55 1437 31 c 128,-1,43
 1493 7 1493 7 1557 7 c 2,44,-1
 1741 7 l 2,45,46
 1804 7 1804 7 1860 31 c 128,-1,47
 1916 55 1916 55 1958 97 c 128,-1,48
 2000 139 2000 139 2024 195 c 128,-1,49
 2048 251 2048 251 2048 314 c 2,50,-1
 2048 498 l 2,51,52
 2048 562 2048 562 2024 618 c 128,-1,53
 2000 674 2000 674 1958 715.5 c 128,-1,54
 1916 757 1916 757 1860 781 c 128,-1,55
 1804 805 1804 805 1741 805 c 2,32,-1
1806 249 m 1,56,-1
 1491 249 l 1,57,-1
 1491 564 l 1,58,-1
 1806 564 l 1,59,-1
 1806 249 l 1,56,-1
EndSplineSet
EndChar

StartChar: quotesingle
Encoding: 39 39 7
Width: 520
Flags: W
LayerCount: 2
Fore
SplineSet
419 1596 m 1,0,-1
 419 1225 l 2,1,2
 419 1162 419 1162 395.5 1106 c 128,-1,3
 372 1050 372 1050 331 1008 c 128,-1,4
 290 966 290 966 235.5 940.5 c 128,-1,5
 181 915 181 915 118 912 c 1,6,-1
 0 912 l 1,7,-1
 0 1596 l 1,8,-1
 419 1596 l 1,0,-1
EndSplineSet
EndChar

StartChar: plus
Encoding: 43 43 8
Width: 1200
Flags: W
LayerCount: 2
Fore
SplineSet
1079 885 m 1,0,-1
 1079 545 l 1,1,-1
 710 545 l 1,2,-1
 710 175 l 1,3,-1
 370 175 l 1,4,-1
 370 545 l 1,5,-1
 0 545 l 1,6,-1
 0 885 l 1,7,-1
 370 885 l 1,8,-1
 370 1254 l 1,9,-1
 710 1254 l 1,10,-1
 710 885 l 1,11,-1
 1079 885 l 1,12,-1
 1079 885 l 1,0,-1
EndSplineSet
EndChar

StartChar: comma
Encoding: 44 44 9
Width: 520
Flags: W
LayerCount: 2
Fore
SplineSet
419 342 m 1,0,-1
 419 -29 l 2,1,2
 419 -92 419 -92 395.5 -148 c 128,-1,3
 372 -204 372 -204 331.5 -246 c 128,-1,4
 291 -288 291 -288 236 -313.5 c 128,-1,5
 181 -339 181 -339 119 -341 c 1,6,-1
 0 -341 l 1,7,-1
 0 342 l 1,8,-1
 419 342 l 1,0,-1
EndSplineSet
EndChar

StartChar: hyphen
Encoding: 45 45 10
Width: 1180
Flags: W
LayerCount: 2
Fore
SplineSet
1078 545 m 1,0,-1
 0 545 l 1,1,-1
 0 885 l 1,2,-1
 1078 885 l 1,3,-1
 1078 545 l 1,4,-1
 1078 545 l 1,0,-1
EndSplineSet
EndChar

StartChar: period
Encoding: 46 46 11
Width: 540
Flags: W
LayerCount: 2
Fore
SplineSet
420 342 m 1,0,-1
 420 0 l 1,1,-1
 0 0 l 1,2,-1
 0 342 l 1,3,-1
 420 342 l 1,4,-1
 420 342 l 1,0,-1
EndSplineSet
EndChar

StartChar: slash
Encoding: 47 47 12
Width: 1220
Flags: W
LayerCount: 2
Fore
SplineSet
447 -505 m 1,0,-1
 0 -505 l 1,1,-1
 765 1596 l 1,2,-1
 1212 1596 l 1,3,-1
 447 -505 l 1,4,-1
 447 -505 l 1,0,-1
EndSplineSet
EndChar

StartChar: zero
Encoding: 48 48 13
Width: 1920
Flags: W
LayerCount: 2
Fore
SplineSet
1488 1434 m 2,0,1
 1553 1434 1553 1434 1610 1409 c 128,-1,2
 1667 1384 1667 1384 1710 1341.5 c 128,-1,3
 1753 1299 1753 1299 1777.5 1241.5 c 128,-1,4
 1802 1184 1802 1184 1802 1120 c 2,5,-1
 1802 314 l 2,6,7
 1802 249 1802 249 1777.5 192 c 128,-1,8
 1753 135 1753 135 1710 92 c 128,-1,9
 1667 49 1667 49 1610 24.5 c 128,-1,10
 1553 0 1553 0 1488 0 c 2,11,-1
 314 0 l 2,12,13
 249 0 249 0 192 24.5 c 128,-1,14
 135 49 135 49 92 92 c 128,-1,15
 49 135 49 135 24.5 192 c 128,-1,16
 0 249 0 249 0 314 c 2,17,-1
 0 1120 l 2,18,19
 0 1184 0 1184 24.5 1241.5 c 128,-1,20
 49 1299 49 1299 92 1341.5 c 128,-1,21
 135 1384 135 1384 192 1409 c 128,-1,22
 249 1434 249 1434 314 1434 c 2,23,-1
 1488 1434 l 2,0,1
420 1092 m 1,24,-1
 420 429 l 1,25,-1
 1083 1092 l 1,26,-1
 420 1092 l 1,24,-1
1382 342 m 1,27,-1
 1382 1004 l 1,28,-1
 720 342 l 1,29,-1
 1382 342 l 1,27,-1
EndSplineSet
EndChar

StartChar: one
Encoding: 49 49 14
Width: 795
Flags: W
LayerCount: 2
Fore
SplineSet
691 1433 m 1,0,-1
 691 0 l 1,1,-1
 272 0 l 1,2,-1
 272 1091 l 1,3,-1
 0 1091 l 1,4,-1
 0 1120 l 2,5,6
 0 1179 0 1179 21 1232 c 128,-1,7
 42 1285 42 1285 78.5 1326.5 c 128,-1,8
 115 1368 115 1368 165 1395 c 128,-1,9
 215 1422 215 1422 272 1430 c 1,10,-1
 272 1433 l 1,11,-1
 691 1433 l 1,0,-1
EndSplineSet
EndChar

StartChar: two
Encoding: 50 50 15
Width: 1790
Flags: W
LayerCount: 2
Fore
SplineSet
1386 1434 m 1,0,1
 1450 1434 1450 1434 1507 1409.5 c 128,-1,2
 1564 1385 1564 1385 1607 1342 c 128,-1,3
 1650 1299 1650 1299 1674.5 1242 c 128,-1,4
 1699 1185 1699 1185 1699 1121 c 2,5,-1
 1699 895 l 2,6,7
 1699 835 1699 835 1677.5 781.5 c 128,-1,8
 1656 728 1656 728 1619 686 c 1,9,10
 1577 641 1577 641 1521.5 613 c 128,-1,11
 1466 585 1466 585 1401 582 c 1,12,-1
 420 582 l 1,13,-1
 420 342 l 1,14,-1
 1699 342 l 1,15,-1
 1699 314 l 2,16,17
 1699 249 1699 249 1674.5 192 c 128,-1,18
 1650 135 1650 135 1607 92 c 128,-1,19
 1564 49 1564 49 1507 24.5 c 128,-1,20
 1450 0 1450 0 1386 0 c 2,21,-1
 0 0 l 1,22,-1
 0 539 l 2,23,24
 0 599 0 599 21 652.5 c 128,-1,25
 42 706 42 706 80 748 c 0,26,27
 121 793 121 793 176.5 821 c 128,-1,28
 232 849 232 849 297 852 c 1,29,-1
 1178 852 l 2,30,31
 1199 852 1199 852 1218 860.5 c 128,-1,32
 1237 869 1237 869 1251 883.5 c 128,-1,33
 1265 898 1265 898 1273 917 c 128,-1,34
 1281 936 1281 936 1281 957 c 2,35,-1
 1281 990 l 2,36,37
 1281 1011 1281 1011 1273 1029.5 c 128,-1,38
 1265 1048 1265 1048 1251 1062 c 128,-1,39
 1237 1076 1237 1076 1218 1084 c 128,-1,40
 1199 1092 1199 1092 1178 1092 c 2,41,-1
 0 1092 l 1,42,-1
 0 1121 l 2,43,44
 0 1185 0 1185 24.5 1242 c 128,-1,45
 49 1299 49 1299 92 1342 c 128,-1,46
 135 1385 135 1385 191.5 1409.5 c 128,-1,47
 248 1434 248 1434 313 1434 c 2,48,-1
 1386 1434 l 1,49,-1
 1386 1434 l 1,0,1
EndSplineSet
EndChar

StartChar: three
Encoding: 51 51 16
Width: 1790
Flags: W
LayerCount: 2
Fore
SplineSet
1385 1434 m 1,0,1
 1450 1434 1450 1434 1507 1409.5 c 128,-1,2
 1564 1385 1564 1385 1607 1342 c 128,-1,3
 1650 1299 1650 1299 1674.5 1242 c 128,-1,4
 1699 1185 1699 1185 1699 1121 c 2,5,-1
 1699 903 l 2,6,7
 1699 865 1699 865 1684.5 831.5 c 128,-1,8
 1670 798 1670 798 1645 773 c 128,-1,9
 1620 748 1620 748 1586.5 733.5 c 128,-1,10
 1553 719 1553 719 1515 719 c 1,11,12
 1553 719 1553 719 1586.5 704.5 c 128,-1,13
 1620 690 1620 690 1645 665 c 128,-1,14
 1670 640 1670 640 1684.5 606 c 128,-1,15
 1699 572 1699 572 1699 534 c 2,16,-1
 1699 314 l 2,17,18
 1699 249 1699 249 1674.5 192 c 128,-1,19
 1650 135 1650 135 1607 92.5 c 128,-1,20
 1564 50 1564 50 1507 25 c 128,-1,21
 1450 0 1450 0 1386 0 c 2,22,-1
 314 0 l 2,23,24
 249 0 249 0 192 24.5 c 128,-1,25
 135 49 135 49 92.5 92 c 128,-1,26
 50 135 50 135 25 192 c 128,-1,27
 0 249 0 249 0 314 c 2,28,-1
 0 342 l 1,29,-1
 1186 342 l 2,30,31
 1207 342 1207 342 1226 350 c 128,-1,32
 1245 358 1245 358 1259 372.5 c 128,-1,33
 1273 387 1273 387 1281 406 c 128,-1,34
 1289 425 1289 425 1289 446 c 2,35,-1
 1289 478 l 2,36,37
 1289 499 1289 499 1281 518 c 128,-1,38
 1273 537 1273 537 1259 551 c 128,-1,39
 1245 565 1245 565 1226 573 c 128,-1,40
 1207 581 1207 581 1186 581 c 2,41,-1
 420 581 l 1,42,-1
 420 855 l 1,43,-1
 1186 855 l 2,44,45
 1207 855 1207 855 1226 863 c 128,-1,46
 1245 871 1245 871 1259 885 c 128,-1,47
 1273 899 1273 899 1281 917.5 c 128,-1,48
 1289 936 1289 936 1289 957 c 2,49,-1
 1289 990 l 2,50,51
 1289 1011 1289 1011 1281 1029.5 c 128,-1,52
 1273 1048 1273 1048 1259 1062 c 128,-1,53
 1245 1076 1245 1076 1226 1084 c 128,-1,54
 1207 1092 1207 1092 1186 1092 c 2,55,-1
 0 1092 l 1,56,-1
 0 1120 l 2,57,58
 0 1185 0 1185 24.5 1242 c 128,-1,59
 49 1299 49 1299 92 1342 c 128,-1,60
 135 1385 135 1385 192 1409.5 c 128,-1,61
 249 1434 249 1434 314 1434 c 2,62,-1
 1385 1434 l 1,63,-1
 1385 1434 l 1,0,1
EndSplineSet
EndChar

StartChar: four
Encoding: 52 52 17
Width: 2020
Flags: W
LayerCount: 2
Fore
SplineSet
1833 1433 m 1,0,-1
 1833 582 l 1,1,-1
 1908 582 l 1,2,-1
 1908 240 l 1,3,-1
 1833 240 l 1,4,-1
 1833 0 l 1,5,-1
 1413 0 l 1,6,-1
 1413 240 l 1,7,-1
 313 240 l 2,8,9
 238 240 238 240 175 272 c 128,-1,10
 112 304 112 304 68 359 c 0,11,12
 39 396 39 396 21 441 c 128,-1,13
 3 486 3 486 0 537 c 1,14,15
 1 559 1 559 6 582 c 0,16,17
 20 649 20 649 60 706 c 128,-1,18
 100 763 100 763 165 797 c 2,19,-1
 1293 1397 l 2,20,21
 1351 1427 1351 1427 1413 1432 c 1,22,-1
 1413 1433 l 1,23,-1
 1833 1433 l 1,0,-1
1413 1074 m 1,24,-1
 487 582 l 1,25,-1
 1413 582 l 1,26,-1
 1413 1074 l 1,24,-1
EndSplineSet
EndChar

StartChar: five
Encoding: 53 53 18
Width: 1820
Flags: W
LayerCount: 2
Fore
SplineSet
1385 1434 m 1,0,1
 1449 1434 1449 1434 1506 1409 c 128,-1,2
 1563 1384 1563 1384 1606 1341.5 c 128,-1,3
 1649 1299 1649 1299 1673.5 1241.5 c 128,-1,4
 1698 1184 1698 1184 1698 1120 c 2,5,-1
 1698 1092 l 1,6,-1
 419 1092 l 1,7,-1
 419 855 l 1,8,-1
 1401 855 l 1,9,10
 1466 851 1466 851 1521.5 822 c 128,-1,11
 1577 793 1577 793 1618 748 c 0,12,13
 1656 706 1656 706 1677 652.5 c 128,-1,14
 1698 599 1698 599 1698 539 c 2,15,-1
 1698 313 l 2,16,17
 1698 248 1698 248 1673.5 191.5 c 128,-1,18
 1649 135 1649 135 1606 92 c 128,-1,19
 1563 49 1563 49 1506 24.5 c 128,-1,20
 1449 0 1449 0 1385 0 c 2,21,-1
 312 0 l 2,22,23
 247 0 247 0 190.5 24.5 c 128,-1,24
 134 49 134 49 91.5 92 c 128,-1,25
 49 135 49 135 24.5 192 c 128,-1,26
 0 249 0 249 0 314 c 2,27,-1
 0 342 l 1,28,-1
 1178 342 l 2,29,30
 1199 342 1199 342 1217.5 350 c 128,-1,31
 1236 358 1236 358 1250 372 c 128,-1,32
 1264 386 1264 386 1272 404.5 c 128,-1,33
 1280 423 1280 423 1280 444 c 2,34,-1
 1280 477 l 2,35,36
 1280 498 1280 498 1272 517 c 128,-1,37
 1264 536 1264 536 1250 550.5 c 128,-1,38
 1236 565 1236 565 1217.5 573.5 c 128,-1,39
 1199 582 1199 582 1178 582 c 2,40,-1
 0 582 l 1,41,-1
 0 1434 l 1,42,-1
 1385 1434 l 1,43,-1
 1385 1434 l 1,0,1
EndSplineSet
EndChar

StartChar: six
Encoding: 54 54 19
Width: 1790
Flags: W
LayerCount: 2
Fore
SplineSet
513 1091 m 2,0,1
 492 1091 492 1091 473.5 1083 c 128,-1,2
 455 1075 455 1075 441 1060.5 c 128,-1,3
 427 1046 427 1046 419 1027.5 c 128,-1,4
 411 1009 411 1009 411 988 c 2,5,-1
 411 955 l 2,6,7
 411 934 411 934 419 915.5 c 128,-1,8
 427 897 427 897 441 883 c 128,-1,9
 455 869 455 869 473.5 861 c 128,-1,10
 492 853 492 853 513 853 c 0,11,12
 761 852 761 852 956 852 c 0,13,14
 1039 852 1039 852 1119 852 c 128,-1,15
 1199 852 1199 852 1261.5 851.5 c 128,-1,16
 1324 851 1324 851 1362.5 851 c 128,-1,17
 1401 851 1401 851 1402 851 c 0,18,19
 1467 848 1467 848 1522.5 820.5 c 128,-1,20
 1578 793 1578 793 1619 747 c 0,21,22
 1657 705 1657 705 1678 651.5 c 128,-1,23
 1699 598 1699 598 1699 538 c 2,24,-1
 1699 313 l 2,25,26
 1699 248 1699 248 1674.5 191.5 c 128,-1,27
 1650 135 1650 135 1607 92 c 128,-1,28
 1564 49 1564 49 1507 24.5 c 128,-1,29
 1450 0 1450 0 1386 0 c 2,30,-1
 314 0 l 2,31,32
 249 0 249 0 192 24.5 c 128,-1,33
 135 49 135 49 92.5 91.5 c 128,-1,34
 50 134 50 134 25 191 c 128,-1,35
 0 248 0 248 0 313 c 2,36,-1
 0 1119 l 2,37,38
 0 1184 0 1184 24.5 1241 c 128,-1,39
 49 1298 49 1298 92 1341 c 128,-1,40
 135 1384 135 1384 192 1408.5 c 128,-1,41
 249 1433 249 1433 314 1433 c 2,42,-1
 1385 1433 l 2,43,44
 1450 1433 1450 1433 1507 1408.5 c 128,-1,45
 1564 1384 1564 1384 1607 1341 c 128,-1,46
 1650 1298 1650 1298 1674.5 1241 c 128,-1,47
 1699 1184 1699 1184 1699 1120 c 2,48,-1
 1699 1091 l 1,49,-1
 513 1091 l 2,0,1
513 578 m 2,50,51
 492 578 492 578 473.5 570 c 128,-1,52
 455 562 455 562 441 548 c 128,-1,53
 427 534 427 534 419 515.5 c 128,-1,54
 411 497 411 497 411 476 c 2,55,-1
 411 444 l 2,56,57
 411 423 411 423 419 404 c 128,-1,58
 427 385 427 385 441 371 c 128,-1,59
 455 357 455 357 473.5 349 c 128,-1,60
 492 341 492 341 513 341 c 2,61,-1
 1179 341 l 2,62,63
 1200 341 1200 341 1218.5 349 c 128,-1,64
 1237 357 1237 357 1251 371 c 128,-1,65
 1265 385 1265 385 1273 404 c 128,-1,66
 1281 423 1281 423 1281 444 c 2,67,-1
 1281 476 l 2,68,69
 1281 497 1281 497 1273 515.5 c 128,-1,70
 1265 534 1265 534 1251 548 c 128,-1,71
 1237 562 1237 562 1218.5 570 c 128,-1,72
 1200 578 1200 578 1179 578 c 2,73,-1
 513 578 l 2,50,51
EndSplineSet
EndChar

StartChar: seven
Encoding: 55 55 20
Width: 1790
Flags: W
LayerCount: 2
Fore
SplineSet
1248 1092 m 1,0,-1
 0 1092 l 1,1,-1
 0 1120 l 2,2,3
 0 1184 0 1184 24.5 1241.5 c 128,-1,4
 49 1299 49 1299 92 1341.5 c 128,-1,5
 135 1384 135 1384 192 1409 c 128,-1,6
 249 1434 249 1434 314 1434 c 2,7,-1
 1386 1434 l 2,8,9
 1397 1434 1397 1434 1407 1433 c 128,-1,10
 1417 1432 1417 1432 1428 1430 c 1,11,-1
 1430 1430 l 1,12,13
 1506 1419 1506 1419 1567 1375 c 128,-1,14
 1628 1331 1628 1331 1663 1265 c 0,15,16
 1680 1233 1680 1233 1689.5 1196 c 128,-1,17
 1699 1159 1699 1159 1699 1120 c 2,18,-1
 1699 1095 l 2,19,20
 1699 1094 1699 1094 1698.5 1093.5 c 128,-1,21
 1698 1093 1698 1093 1698 1092 c 1,22,-1
 1696 1092 l 1,23,24
 1691 1032 1691 1032 1661 974 c 2,25,-1
 1143 0 l 1,26,-1
 668 0 l 1,27,-1
 1248 1092 l 1,0,-1
EndSplineSet
EndChar

StartChar: eight
Encoding: 56 56 21
Width: 1790
Flags: W
LayerCount: 2
Fore
SplineSet
1385 1434 m 2,0,1
 1450 1434 1450 1434 1507 1409.5 c 128,-1,2
 1564 1385 1564 1385 1607 1342 c 128,-1,3
 1650 1299 1650 1299 1674.5 1242 c 128,-1,4
 1699 1185 1699 1185 1699 1120 c 2,5,-1
 1699 903 l 2,6,7
 1699 865 1699 865 1684.5 831 c 128,-1,8
 1670 797 1670 797 1645 772 c 128,-1,9
 1620 747 1620 747 1586.5 732.5 c 128,-1,10
 1553 718 1553 718 1515 718 c 1,11,12
 1553 718 1553 718 1586.5 703.5 c 128,-1,13
 1620 689 1620 689 1645 664 c 128,-1,14
 1670 639 1670 639 1684.5 605.5 c 128,-1,15
 1699 572 1699 572 1699 534 c 2,16,-1
 1699 314 l 2,17,18
 1699 249 1699 249 1674.5 192 c 128,-1,19
 1650 135 1650 135 1607 92 c 128,-1,20
 1564 49 1564 49 1507 24.5 c 128,-1,21
 1450 0 1450 0 1386 0 c 2,22,-1
 314 0 l 2,23,24
 249 0 249 0 192 24.5 c 128,-1,25
 135 49 135 49 92.5 92 c 128,-1,26
 50 135 50 135 25 192 c 128,-1,27
 0 249 0 249 0 314 c 2,28,-1
 0 534 l 2,29,30
 0 572 0 572 14.5 605.5 c 128,-1,31
 29 639 29 639 54 664 c 128,-1,32
 79 689 79 689 113 703.5 c 128,-1,33
 147 718 147 718 185 718 c 1,34,35
 147 718 147 718 113 732.5 c 128,-1,36
 79 747 79 747 54 772 c 128,-1,37
 29 797 29 797 14.5 831 c 128,-1,38
 0 865 0 865 0 903 c 2,39,-1
 0 1120 l 2,40,41
 0 1185 0 1185 24.5 1242 c 128,-1,42
 49 1299 49 1299 92 1342 c 128,-1,43
 135 1385 135 1385 192 1409.5 c 128,-1,44
 249 1434 249 1434 314 1434 c 2,45,-1
 1338 1434 l 1,46,-1
 1385 1434 l 2,0,1
418 957 m 2,47,48
 418 936 418 936 426 917.5 c 128,-1,49
 434 899 434 899 448 885 c 128,-1,50
 462 871 462 871 481 863 c 128,-1,51
 500 855 500 855 521 855 c 2,52,-1
 1186 855 l 2,53,54
 1207 855 1207 855 1226 863 c 128,-1,55
 1245 871 1245 871 1259 885 c 128,-1,56
 1273 899 1273 899 1281 917.5 c 128,-1,57
 1289 936 1289 936 1289 957 c 2,58,-1
 1289 990 l 2,59,60
 1289 1011 1289 1011 1281 1029.5 c 128,-1,61
 1273 1048 1273 1048 1259 1062 c 128,-1,62
 1245 1076 1245 1076 1226 1084 c 128,-1,63
 1207 1092 1207 1092 1186 1092 c 2,64,-1
 521 1092 l 2,65,66
 500 1092 500 1092 481 1084 c 128,-1,67
 462 1076 462 1076 448 1062 c 128,-1,68
 434 1048 434 1048 426 1029.5 c 128,-1,69
 418 1011 418 1011 418 990 c 2,70,-1
 418 957 l 2,47,48
1186 343 m 2,71,72
 1207 343 1207 343 1226 351 c 128,-1,73
 1245 359 1245 359 1259 373 c 128,-1,74
 1273 387 1273 387 1281 406 c 128,-1,75
 1289 425 1289 425 1289 446 c 2,76,-1
 1289 478 l 2,77,78
 1289 499 1289 499 1281 518 c 128,-1,79
 1273 537 1273 537 1259 550.5 c 128,-1,80
 1245 564 1245 564 1226 572 c 128,-1,81
 1207 580 1207 580 1186 580 c 2,82,-1
 521 580 l 2,83,84
 500 580 500 580 481 572 c 128,-1,85
 462 564 462 564 448 550.5 c 128,-1,86
 434 537 434 537 426 518 c 128,-1,87
 418 499 418 499 418 478 c 2,88,-1
 418 446 l 2,89,90
 418 425 418 425 426 406 c 128,-1,91
 434 387 434 387 448 373 c 128,-1,92
 462 359 462 359 481 351 c 128,-1,93
 500 343 500 343 521 343 c 2,94,-1
 1186 343 l 2,71,72
EndSplineSet
EndChar

StartChar: nine
Encoding: 57 57 22
Width: 1790
Flags: W
LayerCount: 2
Fore
SplineSet
1187 341 m 2,0,1
 1208 341 1208 341 1226.5 349.5 c 128,-1,2
 1245 358 1245 358 1259 372 c 128,-1,3
 1273 386 1273 386 1281 405 c 128,-1,4
 1289 424 1289 424 1289 445 c 2,5,-1
 1289 478 l 2,6,7
 1289 499 1289 499 1281 517.5 c 128,-1,8
 1273 536 1273 536 1259 550 c 128,-1,9
 1245 564 1245 564 1226.5 572 c 128,-1,10
 1208 580 1208 580 1187 580 c 0,11,12
 939 581 939 581 744 581 c 0,13,14
 661 581 661 581 581 581 c 128,-1,15
 501 581 501 581 438.5 581 c 128,-1,16
 376 581 376 581 337.5 581.5 c 128,-1,17
 299 582 299 582 298 582 c 0,18,19
 233 585 233 585 177.5 612.5 c 128,-1,20
 122 640 122 640 81 686 c 0,21,22
 43 728 43 728 21.5 781.5 c 128,-1,23
 0 835 0 835 0 895 c 2,24,-1
 0 1119 l 2,25,26
 0 1184 0 1184 24.5 1241 c 128,-1,27
 49 1298 49 1298 92 1341 c 128,-1,28
 135 1384 135 1384 192 1408.5 c 128,-1,29
 249 1433 249 1433 314 1433 c 2,30,-1
 1385 1433 l 2,31,32
 1450 1433 1450 1433 1507 1408.5 c 128,-1,33
 1564 1384 1564 1384 1607 1341 c 128,-1,34
 1650 1298 1650 1298 1674.5 1241 c 128,-1,35
 1699 1184 1699 1184 1699 1120 c 2,36,-1
 1699 314 l 2,37,38
 1699 249 1699 249 1674.5 192 c 128,-1,39
 1650 135 1650 135 1607 92 c 128,-1,40
 1564 49 1564 49 1507 24.5 c 128,-1,41
 1450 0 1450 0 1386 0 c 2,42,-1
 314 0 l 2,43,44
 249 0 249 0 192 24.5 c 128,-1,45
 135 49 135 49 92.5 92 c 128,-1,46
 50 135 50 135 25 191.5 c 128,-1,47
 0 248 0 248 0 313 c 2,48,-1
 0 341 l 1,49,-1
 1187 341 l 2,0,1
1187 854 m 2,50,51
 1208 854 1208 854 1226.5 862 c 128,-1,52
 1245 870 1245 870 1259 884 c 128,-1,53
 1273 898 1273 898 1281 917 c 128,-1,54
 1289 936 1289 936 1289 957 c 2,55,-1
 1289 989 l 2,56,57
 1289 1010 1289 1010 1281 1029 c 128,-1,58
 1273 1048 1273 1048 1259 1062 c 128,-1,59
 1245 1076 1245 1076 1226.5 1084 c 128,-1,60
 1208 1092 1208 1092 1187 1092 c 2,61,-1
 521 1092 l 2,62,63
 500 1092 500 1092 481.5 1084 c 128,-1,64
 463 1076 463 1076 449 1062 c 128,-1,65
 435 1048 435 1048 427 1029 c 128,-1,66
 419 1010 419 1010 419 989 c 2,67,-1
 419 957 l 2,68,69
 419 936 419 936 427 917 c 128,-1,70
 435 898 435 898 449 884 c 128,-1,71
 463 870 463 870 481.5 862 c 128,-1,72
 500 854 500 854 521 854 c 2,73,-1
 1187 854 l 2,50,51
EndSplineSet
EndChar

StartChar: colon
Encoding: 58 58 23
Width: 530
Flags: W
LayerCount: 2
Fore
SplineSet
420 0 m 1,0,-1
 0 0 l 1,1,-1
 0 342 l 1,2,-1
 420 342 l 1,3,-1
 420 0 l 1,4,-1
 420 0 l 1,0,-1
420 1093 m 1,5,-1
 420 751 l 1,6,-1
 0 751 l 1,7,-1
 0 1093 l 1,8,-1
 420 1093 l 1,5,-1
EndSplineSet
EndChar

StartChar: semicolon
Encoding: 59 59 24
Width: 530
Flags: W
LayerCount: 2
Fore
SplineSet
419 1093 m 1,0,-1
 419 751 l 1,1,-1
 0 751 l 1,2,-1
 0 1093 l 1,3,-1
 419 1093 l 1,0,-1
0 -341 m 1,4,-1
 119 -341 l 1,5,6
 182 -339 182 -339 236.5 -313.5 c 128,-1,7
 291 -288 291 -288 331.5 -246 c 128,-1,8
 372 -204 372 -204 395.5 -148 c 128,-1,9
 419 -92 419 -92 419 -29 c 2,10,-1
 419 342 l 1,11,-1
 0 342 l 1,12,-1
 0 -341 l 1,4,-1
EndSplineSet
EndChar

StartChar: less
Encoding: 60 60 25
Width: 2048
Flags: W
LayerCount: 2
Fore
SplineSet
1716 1512 m 1,0,-1
 1968 1508 l 1,1,-1
 740 804 l 1,2,-1
 1956 38 l 1,3,-1
 1760 52 l 1,4,-1
 296 780 l 1,5,-1
 1716 1512 l 1,0,-1
EndSplineSet
EndChar

StartChar: equal
Encoding: 61 61 26
Width: 985
Flags: W
LayerCount: 2
Fore
SplineSet
0 239 m 1,0,-1
 0 471 l 1,1,-1
 874 471 l 1,2,-1
 874 239 l 1,3,-1
 0 239 l 1,4,-1
 0 239 l 1,0,-1
874 624 m 1,5,-1
 0 624 l 1,6,-1
 0 856 l 1,7,-1
 874 856 l 1,8,-1
 874 624 l 1,5,-1
EndSplineSet
EndChar

StartChar: greater
Encoding: 62 62 27
Width: 2048
Flags: W
LayerCount: 2
Fore
SplineSet
548 1512 m 1,0,-1
 296 1508 l 1,1,-1
 1524 804 l 1,2,-1
 308 38 l 1,3,-1
 504 52 l 1,4,-1
 1968 780 l 1,5,-1
 548 1512 l 1,0,-1
EndSplineSet
EndChar

StartChar: question
Encoding: 63 63 28
Width: 1480
Flags: W
LayerCount: 2
Fore
SplineSet
556 342 m 1,0,-1
 975 342 l 1,1,-1
 975 313 l 2,2,3
 975 250 975 250 951.5 194 c 128,-1,4
 928 138 928 138 887.5 96 c 128,-1,5
 847 54 847 54 792 28.5 c 128,-1,6
 737 3 737 3 675 0 c 1,7,-1
 556 0 l 1,8,-1
 556 342 l 1,0,-1
1078 1597 m 2,9,10
 1142 1597 1142 1597 1199.5 1572.5 c 128,-1,11
 1257 1548 1257 1548 1299.5 1505 c 128,-1,12
 1342 1462 1342 1462 1367 1405 c 128,-1,13
 1392 1348 1392 1348 1392 1284 c 2,14,-1
 1392 859 l 2,15,16
 1392 795 1392 795 1368 738.5 c 128,-1,17
 1344 682 1344 682 1302 639.5 c 128,-1,18
 1260 597 1260 597 1204 572 c 128,-1,19
 1148 547 1148 547 1084 546 c 1,20,-1
 1084 545 l 1,21,-1
 975 545 l 1,22,-1
 975 470 l 1,23,-1
 556 470 l 1,24,-1
 556 792 l 1,25,-1
 972 792 l 1,26,-1
 972 1254 l 1,27,-1
 420 1254 l 1,28,-1
 420 1092 l 1,29,-1
 0 1092 l 1,30,-1
 0 1284 l 2,31,32
 0 1348 0 1348 24.5 1405 c 128,-1,33
 49 1462 49 1462 92 1505 c 128,-1,34
 135 1548 135 1548 191.5 1572.5 c 128,-1,35
 248 1597 248 1597 313 1597 c 2,36,-1
 1078 1597 l 2,9,10
EndSplineSet
EndChar

StartChar: at
Encoding: 64 64 29
Width: 1490
Flags: W
LayerCount: 2
Fore
SplineSet
1354 1276 m 2,0,1
 1418 1276 1418 1276 1476 1252 c 128,-1,2
 1534 1228 1534 1228 1576 1185 c 128,-1,3
 1618 1142 1618 1142 1643 1085 c 128,-1,4
 1668 1028 1668 1028 1668 962 c 2,5,-1
 1668 156 l 2,6,7
 1668 92 1668 92 1643 35 c 128,-1,8
 1618 -22 1618 -22 1576 -65 c 128,-1,9
 1534 -108 1534 -108 1476 -133 c 128,-1,10
 1418 -158 1418 -158 1354 -158 c 2,11,-1
 78 -158 l 2,12,13
 12 -158 12 -158 -44 -133 c 128,-1,14
 -100 -108 -100 -108 -143 -65 c 128,-1,15
 -186 -22 -186 -22 -211 35 c 128,-1,16
 -236 92 -236 92 -236 156 c 2,17,-1
 -236 962 l 2,18,19
 -236 1028 -236 1028 -211 1085 c 128,-1,20
 -186 1142 -186 1142 -143 1185 c 128,-1,21
 -100 1228 -100 1228 -44 1252 c 128,-1,22
 12 1276 12 1276 78 1276 c 2,23,-1
 1354 1276 l 2,0,1
1248 934 m 1,24,-1
 184 934 l 1,25,-1
 184 184 l 1,26,-1
 1248 184 l 1,27,-1
 1248 934 l 1,24,-1
888 820 m 2,28,29
 920 820 920 820 948.5 807.5 c 128,-1,30
 977 795 977 795 998.5 773.5 c 128,-1,31
 1020 752 1020 752 1032 723.5 c 128,-1,32
 1044 695 1044 695 1044 663 c 2,33,-1
 1044 273 l 1,34,-1
 505 273 l 2,35,36
 474 273 474 273 447 284 c 128,-1,37
 420 295 420 295 399.5 314 c 128,-1,38
 379 333 379 333 365.5 359 c 128,-1,39
 352 385 352 385 350 415 c 1,40,41
 348 419 348 419 348 422 c 128,-1,42
 348 425 348 425 348 429 c 0,43,44
 348 461 348 461 361 489.5 c 128,-1,45
 374 518 374 518 395 539 c 128,-1,46
 416 560 416 560 444 572.5 c 128,-1,47
 472 585 472 585 505 585 c 2,48,-1
 834 585 l 1,49,-1
 834 649 l 1,50,-1
 348 649 l 1,51,-1
 348 663 l 2,52,53
 348 695 348 695 360.5 723.5 c 128,-1,54
 373 752 373 752 394.5 773.5 c 128,-1,55
 416 795 416 795 444 807.5 c 128,-1,56
 472 820 472 820 505 820 c 2,57,-1
 888 820 l 2,28,29
834 509 m 1,58,-1
 558 509 l 1,59,-1
 558 444 l 1,60,-1
 834 444 l 1,61,-1
 834 509 l 1,58,-1
EndSplineSet
EndChar

StartChar: A
Encoding: 65 65 30
Width: 1790
Flags: W
LayerCount: 2
Fore
SplineSet
1386 1434 m 2,0,1
 1450 1434 1450 1434 1507 1409 c 128,-1,2
 1564 1384 1564 1384 1607 1341.5 c 128,-1,3
 1650 1299 1650 1299 1674.5 1241.5 c 128,-1,4
 1699 1184 1699 1184 1699 1120 c 2,5,-1
 1699 314 l 2,6,7
 1699 249 1699 249 1674.5 192 c 128,-1,8
 1650 135 1650 135 1607 92 c 128,-1,9
 1564 49 1564 49 1507 24.5 c 128,-1,10
 1450 0 1450 0 1386 0 c 2,11,-1
 1289 0 l 1,12,-1
 1289 582 l 1,13,-1
 420 582 l 1,14,-1
 420 0 l 1,15,-1
 314 0 l 2,16,17
 249 0 249 0 192 24.5 c 128,-1,18
 135 49 135 49 92 92 c 128,-1,19
 49 135 49 135 24.5 192 c 128,-1,20
 0 249 0 249 0 314 c 2,21,-1
 0 1120 l 2,22,23
 0 1184 0 1184 24.5 1241.5 c 128,-1,24
 49 1299 49 1299 92 1341.5 c 128,-1,25
 135 1384 135 1384 192 1409 c 128,-1,26
 249 1434 249 1434 314 1434 c 2,27,-1
 1386 1434 l 2,0,1
420 855 m 1,28,-1
 1289 855 l 1,29,-1
 1289 1092 l 1,30,-1
 420 1092 l 1,31,-1
 420 855 l 1,28,-1
EndSplineSet
EndChar

StartChar: B
Encoding: 66 66 31
Width: 1790
Flags: W
LayerCount: 2
Fore
SplineSet
1699 903 m 2,0,1
 1699 865 1699 865 1684.5 831 c 128,-1,2
 1670 797 1670 797 1645 772 c 128,-1,3
 1620 747 1620 747 1586.5 732.5 c 128,-1,4
 1553 718 1553 718 1515 718 c 1,5,6
 1553 718 1553 718 1586.5 703.5 c 128,-1,7
 1620 689 1620 689 1645 664 c 128,-1,8
 1670 639 1670 639 1684.5 605.5 c 128,-1,9
 1699 572 1699 572 1699 534 c 2,10,-1
 1699 302 l 1,11,12
 1697 239 1697 239 1671.5 184 c 128,-1,13
 1646 129 1646 129 1603.5 88 c 128,-1,14
 1561 47 1561 47 1505 23.5 c 128,-1,15
 1449 0 1449 0 1386 0 c 2,16,-1
 314 0 l 2,17,18
 249 0 249 0 192 24.5 c 128,-1,19
 135 49 135 49 92 92 c 128,-1,20
 49 135 49 135 24.5 192 c 128,-1,21
 0 249 0 249 0 314 c 2,22,-1
 0 1120 l 2,23,24
 0 1184 0 1184 24.5 1241.5 c 128,-1,25
 49 1299 49 1299 92 1341.5 c 128,-1,26
 135 1384 135 1384 192 1409 c 128,-1,27
 249 1434 249 1434 314 1434 c 2,28,-1
 1386 1434 l 2,29,30
 1450 1434 1450 1434 1506 1410 c 128,-1,31
 1562 1386 1562 1386 1604.5 1344 c 128,-1,32
 1647 1302 1647 1302 1672 1246 c 128,-1,33
 1697 1190 1697 1190 1699 1126 c 1,34,-1
 1699 903 l 2,0,1
1289 478 m 2,35,36
 1289 499 1289 499 1281 518 c 128,-1,37
 1273 537 1273 537 1259 550.5 c 128,-1,38
 1245 564 1245 564 1226 572 c 128,-1,39
 1207 580 1207 580 1186 580 c 2,40,-1
 418 580 l 1,41,-1
 418 343 l 1,42,-1
 1186 343 l 2,43,44
 1207 343 1207 343 1226 351 c 128,-1,45
 1245 359 1245 359 1259 373 c 128,-1,46
 1273 387 1273 387 1281 405.5 c 128,-1,47
 1289 424 1289 424 1289 445 c 2,48,-1
 1289 478 l 2,35,36
1289 989 m 2,49,50
 1289 1010 1289 1010 1281 1029 c 128,-1,51
 1273 1048 1273 1048 1259 1062 c 128,-1,52
 1245 1076 1245 1076 1226 1084 c 128,-1,53
 1207 1092 1207 1092 1186 1092 c 2,54,-1
 418 1092 l 1,55,-1
 418 855 l 1,56,-1
 1186 855 l 2,57,58
 1207 855 1207 855 1226 863 c 128,-1,59
 1245 871 1245 871 1259 884.5 c 128,-1,60
 1273 898 1273 898 1281 917 c 128,-1,61
 1289 936 1289 936 1289 957 c 2,62,-1
 1289 989 l 2,49,50
EndSplineSet
EndChar

StartChar: C
Encoding: 67 67 32
Width: 1790
Flags: W
LayerCount: 2
Fore
SplineSet
1699 314 m 2,0,1
 1699 249 1699 249 1674.5 192 c 128,-1,2
 1650 135 1650 135 1607 92.5 c 128,-1,3
 1564 50 1564 50 1507 25 c 128,-1,4
 1450 0 1450 0 1385 0 c 2,5,-1
 313 0 l 2,6,7
 248 0 248 0 191.5 25 c 128,-1,8
 135 50 135 50 92 92.5 c 128,-1,9
 49 135 49 135 24.5 192 c 128,-1,10
 0 249 0 249 0 314 c 2,11,-1
 0 1120 l 2,12,13
 0 1185 0 1185 24.5 1242 c 128,-1,14
 49 1299 49 1299 92 1342 c 128,-1,15
 135 1385 135 1385 191.5 1409.5 c 128,-1,16
 248 1434 248 1434 313 1434 c 2,17,-1
 1385 1434 l 2,18,19
 1450 1434 1450 1434 1507 1409.5 c 128,-1,20
 1564 1385 1564 1385 1607 1342 c 128,-1,21
 1650 1299 1650 1299 1674.5 1242 c 128,-1,22
 1699 1185 1699 1185 1699 1120 c 2,23,-1
 1699 1092 l 1,24,-1
 420 1092 l 1,25,-1
 420 342 l 1,26,-1
 1699 342 l 1,27,-1
 1699 314 l 2,0,1
EndSplineSet
EndChar

StartChar: D
Encoding: 68 68 33
Width: 2000
Flags: W
LayerCount: 2
Fore
SplineSet
1580 1434 m 2,0,1
 1644 1434 1644 1434 1701 1409.5 c 128,-1,2
 1758 1385 1758 1385 1801 1342 c 128,-1,3
 1844 1299 1844 1299 1868.5 1242 c 128,-1,4
 1893 1185 1893 1185 1893 1120 c 2,5,-1
 1893 314 l 2,6,7
 1893 249 1893 249 1868.5 192 c 128,-1,8
 1844 135 1844 135 1801 92.5 c 128,-1,9
 1758 50 1758 50 1701 25 c 128,-1,10
 1644 0 1644 0 1580 0 c 2,11,-1
 0 0 l 1,12,-1
 0 1434 l 1,13,-1
 1580 1434 l 2,0,1
1484 1092 m 1,14,-1
 419 1092 l 1,15,-1
 419 342 l 1,16,-1
 1484 342 l 1,17,-1
 1484 1092 l 1,14,-1
EndSplineSet
EndChar

StartChar: E
Encoding: 69 69 34
Width: 1790
Flags: W
LayerCount: 2
Fore
SplineSet
420 1092 m 1,0,-1
 420 853 l 1,1,-1
 1090 853 l 1,2,-1
 1090 580 l 1,3,-1
 420 580 l 1,4,-1
 420 341 l 1,5,-1
 1699 341 l 1,6,-1
 1699 314 l 2,7,8
 1699 249 1699 249 1674.5 192 c 128,-1,9
 1650 135 1650 135 1607 92 c 128,-1,10
 1564 49 1564 49 1507 24.5 c 128,-1,11
 1450 0 1450 0 1386 0 c 2,12,-1
 313 0 l 2,13,14
 248 0 248 0 191.5 24.5 c 128,-1,15
 135 49 135 49 92 92 c 128,-1,16
 49 135 49 135 24.5 192 c 128,-1,17
 0 249 0 249 0 314 c 2,18,-1
 0 1119 l 2,19,20
 0 1184 0 1184 24.5 1241 c 128,-1,21
 49 1298 49 1298 92 1341 c 128,-1,22
 135 1384 135 1384 191.5 1408.5 c 128,-1,23
 248 1433 248 1433 313 1433 c 2,24,-1
 1386 1433 l 2,25,26
 1450 1433 1450 1433 1507 1408.5 c 128,-1,27
 1564 1384 1564 1384 1607 1341 c 128,-1,28
 1650 1298 1650 1298 1674.5 1241 c 128,-1,29
 1699 1184 1699 1184 1699 1119 c 2,30,-1
 1699 1092 l 1,31,-1
 420 1092 l 1,0,-1
EndSplineSet
EndChar

StartChar: F
Encoding: 70 70 35
Width: 1790
Flags: W
LayerCount: 2
Fore
SplineSet
420 1092 m 1,0,-1
 420 854 l 1,1,-1
 1090 854 l 1,2,-1
 1090 582 l 1,3,-1
 420 582 l 1,4,-1
 420 341 l 1,5,-1
 420 0 l 1,6,-1
 313 0 l 2,7,8
 248 0 248 0 191.5 24.5 c 128,-1,9
 135 49 135 49 92 92 c 128,-1,10
 49 135 49 135 24.5 192 c 128,-1,11
 0 249 0 249 0 314 c 2,12,-1
 0 1119 l 2,13,14
 0 1184 0 1184 24.5 1241 c 128,-1,15
 49 1298 49 1298 92 1341 c 128,-1,16
 135 1384 135 1384 191.5 1408.5 c 128,-1,17
 248 1433 248 1433 313 1433 c 2,18,-1
 1386 1433 l 2,19,20
 1450 1433 1450 1433 1507 1408.5 c 128,-1,21
 1564 1384 1564 1384 1607 1341 c 128,-1,22
 1650 1298 1650 1298 1674.5 1241 c 128,-1,23
 1699 1184 1699 1184 1699 1119 c 2,24,-1
 1699 1092 l 1,25,-1
 420 1092 l 1,0,-1
EndSplineSet
EndChar

StartChar: G
Encoding: 71 71 36
Width: 2000
Flags: W
LayerCount: 2
Fore
SplineSet
420 1092 m 1,0,-1
 420 341 l 1,1,-1
 1484 341 l 1,2,-1
 1484 582 l 1,3,-1
 1091 582 l 1,4,-1
 1091 854 l 1,5,-1
 1893 854 l 1,6,-1
 1893 314 l 2,7,8
 1893 249 1893 249 1868.5 192 c 128,-1,9
 1844 135 1844 135 1801 92 c 128,-1,10
 1758 49 1758 49 1701 24.5 c 128,-1,11
 1644 0 1644 0 1580 0 c 2,12,-1
 313 0 l 2,13,14
 248 0 248 0 191.5 24.5 c 128,-1,15
 135 49 135 49 92 92 c 128,-1,16
 49 135 49 135 24.5 192 c 128,-1,17
 0 249 0 249 0 314 c 2,18,-1
 0 1119 l 2,19,20
 0 1184 0 1184 24.5 1241 c 128,-1,21
 49 1298 49 1298 92 1341 c 128,-1,22
 135 1384 135 1384 191.5 1408.5 c 128,-1,23
 248 1433 248 1433 313 1433 c 2,24,-1
 1580 1433 l 2,25,26
 1644 1433 1644 1433 1701 1408.5 c 128,-1,27
 1758 1384 1758 1384 1801 1341 c 128,-1,28
 1844 1298 1844 1298 1868.5 1241 c 128,-1,29
 1893 1184 1893 1184 1893 1119 c 2,30,-1
 1893 1092 l 1,31,-1
 420 1092 l 1,0,-1
EndSplineSet
EndChar

StartChar: H
Encoding: 72 72 37
Width: 1790
Flags: W
LayerCount: 2
Fore
SplineSet
1386 1434 m 1,0,1
 1450 1434 1450 1434 1507 1409.5 c 128,-1,2
 1564 1385 1564 1385 1607 1342 c 128,-1,3
 1650 1299 1650 1299 1674.5 1242 c 128,-1,4
 1699 1185 1699 1185 1699 1120 c 2,5,-1
 1699 314 l 2,6,7
 1699 249 1699 249 1674.5 192 c 128,-1,8
 1650 135 1650 135 1607 92.5 c 128,-1,9
 1564 50 1564 50 1507 25 c 128,-1,10
 1450 0 1450 0 1386 0 c 2,11,-1
 1280 0 l 1,12,-1
 1280 582 l 1,13,-1
 420 582 l 1,14,-1
 420 0 l 1,15,-1
 314 0 l 2,16,17
 249 0 249 0 192 25 c 128,-1,18
 135 50 135 50 92 92.5 c 128,-1,19
 49 135 49 135 24.5 192 c 128,-1,20
 0 249 0 249 0 314 c 2,21,-1
 0 1120 l 2,22,23
 0 1185 0 1185 24.5 1242 c 128,-1,24
 49 1299 49 1299 92 1342 c 128,-1,25
 135 1385 135 1385 192 1409.5 c 128,-1,26
 249 1434 249 1434 314 1434 c 2,27,-1
 420 1434 l 1,28,-1
 420 855 l 1,29,-1
 1280 855 l 1,30,-1
 1280 1434 l 1,31,-1
 1386 1434 l 1,32,-1
 1386 1434 l 1,0,1
EndSplineSet
EndChar

StartChar: I
Encoding: 73 73 38
Width: 530
Flags: W
LayerCount: 2
Fore
SplineSet
419 0 m 1,0,-1
 313 0 l 2,1,2
 248 0 248 0 191.5 24.5 c 128,-1,3
 135 49 135 49 92 92 c 128,-1,4
 49 135 49 135 24.5 192 c 128,-1,5
 0 249 0 249 0 314 c 2,6,-1
 0 1433 l 1,7,-1
 419 1433 l 1,8,-1
 419 0 l 1,0,-1
EndSplineSet
EndChar

StartChar: J
Encoding: 74 74 39
Width: 1790
Flags: W
LayerCount: 2
Fore
SplineSet
1269 1434 m 1,0,-1
 1375 1434 l 2,1,2
 1439 1434 1439 1434 1496 1409.5 c 128,-1,3
 1553 1385 1553 1385 1596 1342 c 128,-1,4
 1639 1299 1639 1299 1663.5 1242 c 128,-1,5
 1688 1185 1688 1185 1688 1120 c 2,6,-1
 1688 314 l 2,7,8
 1688 249 1688 249 1663.5 192 c 128,-1,9
 1639 135 1639 135 1596 92.5 c 128,-1,10
 1553 50 1553 50 1496 25 c 128,-1,11
 1439 0 1439 0 1375 0 c 2,12,-1
 313 0 l 2,13,14
 248 0 248 0 191.5 25 c 128,-1,15
 135 50 135 50 92 92.5 c 128,-1,16
 49 135 49 135 24.5 192 c 128,-1,17
 0 249 0 249 0 314 c 2,18,-1
 0 582 l 1,19,-1
 409 582 l 1,20,-1
 409 342 l 1,21,-1
 1269 342 l 1,22,-1
 1269 1434 l 1,0,-1
EndSplineSet
EndChar

StartChar: K
Encoding: 75 75 40
Width: 1488
Flags: W
LayerCount: 2
Fore
SplineSet
259 5 m 0,0,1
 204 15 204 15 156.5 42.5 c 128,-1,2
 109 70 109 70 74.5 111.5 c 128,-1,3
 40 153 40 153 20 204.5 c 128,-1,4
 0 256 0 256 0 314 c 2,5,-1
 0 1120 l 2,6,7
 0 1185 0 1185 24.5 1242 c 128,-1,8
 49 1299 49 1299 92 1342 c 128,-1,9
 135 1385 135 1385 191.5 1409.5 c 128,-1,10
 248 1434 248 1434 313 1434 c 2,11,-1
 419 1434 l 1,12,-1
 419 855 l 1,13,-1
 422 858 l 1,14,-1
 897 1434 l 1,15,-1
 1441 1434 l 1,16,-1
 850 717 l 1,17,-1
 1441 0 l 1,18,-1
 897 0 l 1,19,-1
 578 387 l 1,20,-1
 419 195 l 1,21,-1
 419 0 l 1,22,-1
 313 0 l 2,23,24
 306 0 306 0 297 0.5 c 128,-1,25
 288 1 288 1 280 2 c 0,26,27
 270 3 270 3 259 5 c 0,0,1
EndSplineSet
EndChar

StartChar: L
Encoding: 76 76 41
Width: 1790
Flags: W
LayerCount: 2
Fore
SplineSet
1699 342 m 1,0,-1
 1699 314 l 2,1,2
 1699 249 1699 249 1674.5 192 c 128,-1,3
 1650 135 1650 135 1607 92 c 128,-1,4
 1564 49 1564 49 1507 24.5 c 128,-1,5
 1450 0 1450 0 1386 0 c 2,6,-1
 313 0 l 2,7,8
 248 0 248 0 191.5 24.5 c 128,-1,9
 135 49 135 49 92 92 c 128,-1,10
 49 135 49 135 24.5 192 c 128,-1,11
 0 249 0 249 0 314 c 2,12,-1
 0 1120 l 2,13,14
 0 1184 0 1184 24.5 1241 c 128,-1,15
 49 1298 49 1298 92 1341 c 128,-1,16
 135 1384 135 1384 191.5 1408.5 c 128,-1,17
 248 1433 248 1433 313 1433 c 2,18,-1
 420 1433 l 1,19,-1
 420 342 l 1,20,-1
 1699 342 l 1,0,-1
EndSplineSet
EndChar

StartChar: M
Encoding: 77 77 42
Width: 2000
Flags: W
LayerCount: 2
Fore
SplineSet
1904 228 m 2,0,1
 1904 181 1904 181 1879 139.5 c 128,-1,2
 1854 98 1854 98 1811.5 67 c 128,-1,3
 1769 36 1769 36 1711.5 18 c 128,-1,4
 1654 0 1654 0 1590 0 c 2,5,-1
 1483 0 l 1,6,-1
 1483 1092 l 1,7,-1
 1161 1092 l 1,8,-1
 1161 0 l 1,9,-1
 742 0 l 1,10,-1
 742 1092 l 1,11,-1
 419 1092 l 1,12,-1
 419 0 l 1,13,-1
 313 0 l 2,14,15
 248 0 248 0 191.5 18 c 128,-1,16
 135 36 135 36 92 67 c 128,-1,17
 49 98 49 98 24.5 139.5 c 128,-1,18
 0 181 0 181 0 228 c 2,19,-1
 0 1120 l 2,20,21
 0 1185 0 1185 24.5 1242 c 128,-1,22
 49 1299 49 1299 92 1342 c 128,-1,23
 135 1385 135 1385 191.5 1409.5 c 128,-1,24
 248 1434 248 1434 313 1434 c 2,25,-1
 1590 1434 l 2,26,27
 1654 1434 1654 1434 1711.5 1409.5 c 128,-1,28
 1769 1385 1769 1385 1811.5 1342 c 128,-1,29
 1854 1299 1854 1299 1879 1242 c 128,-1,30
 1904 1185 1904 1185 1904 1120 c 2,31,-1
 1904 228 l 2,0,1
EndSplineSet
EndChar

StartChar: N
Encoding: 78 78 43
Width: 1790
Flags: W
LayerCount: 2
Fore
SplineSet
1386 1434 m 1,0,1
 1450 1434 1450 1434 1507 1409.5 c 128,-1,2
 1564 1385 1564 1385 1607 1342 c 128,-1,3
 1650 1299 1650 1299 1674.5 1242 c 128,-1,4
 1699 1185 1699 1185 1699 1120 c 2,5,-1
 1699 314 l 2,6,7
 1699 249 1699 249 1674.5 192 c 128,-1,8
 1650 135 1650 135 1607 92.5 c 128,-1,9
 1564 50 1564 50 1507 25 c 128,-1,10
 1450 0 1450 0 1386 0 c 1,11,-1
 1279 4 l 1,12,13
 1221 11 1221 11 1168 39 c 128,-1,14
 1115 67 1115 67 1076 115 c 2,15,-1
 420 910 l 1,16,-1
 420 0 l 1,17,-1
 313 0 l 2,18,19
 248 0 248 0 191.5 25 c 128,-1,20
 135 50 135 50 92 92.5 c 128,-1,21
 49 135 49 135 24.5 192 c 128,-1,22
 0 249 0 249 0 314 c 2,23,-1
 0 1120 l 2,24,25
 0 1185 0 1185 24.5 1242 c 128,-1,26
 49 1299 49 1299 92 1342 c 128,-1,27
 135 1385 135 1385 191.5 1409.5 c 128,-1,28
 248 1434 248 1434 313 1434 c 1,29,-1
 420 1431 l 1,30,31
 479 1424 479 1424 532.5 1396.5 c 128,-1,32
 586 1369 586 1369 626 1320 c 2,33,-1
 1279 527 l 1,34,-1
 1279 1434 l 1,35,-1
 1386 1434 l 1,36,-1
 1386 1434 l 1,0,1
EndSplineSet
EndChar

StartChar: O
Encoding: 79 79 44
Width: 2010
Flags: W
LayerCount: 2
Fore
SplineSet
1590 1434 m 2,0,1
 1654 1434 1654 1434 1711.5 1409.5 c 128,-1,2
 1769 1385 1769 1385 1811.5 1342 c 128,-1,3
 1854 1299 1854 1299 1879 1242 c 128,-1,4
 1904 1185 1904 1185 1904 1120 c 2,5,-1
 1904 314 l 2,6,7
 1904 249 1904 249 1879 192 c 128,-1,8
 1854 135 1854 135 1811.5 92.5 c 128,-1,9
 1769 50 1769 50 1711.5 25 c 128,-1,10
 1654 0 1654 0 1590 0 c 2,11,-1
 313 0 l 2,12,13
 248 0 248 0 191.5 25 c 128,-1,14
 135 50 135 50 92 92.5 c 128,-1,15
 49 135 49 135 24.5 192 c 128,-1,16
 0 249 0 249 0 314 c 2,17,-1
 0 1120 l 2,18,19
 0 1185 0 1185 24.5 1242 c 128,-1,20
 49 1299 49 1299 92 1342 c 128,-1,21
 135 1385 135 1385 191.5 1409.5 c 128,-1,22
 248 1434 248 1434 313 1434 c 2,23,-1
 1590 1434 l 2,0,1
1484 1092 m 1,24,-1
 419 1092 l 1,25,-1
 419 342 l 1,26,-1
 1484 342 l 1,27,-1
 1484 1092 l 1,24,-1
EndSplineSet
EndChar

StartChar: P
Encoding: 80 80 45
Width: 1790
Flags: W
LayerCount: 2
Fore
SplineSet
1386 1433 m 2,0,1
 1450 1433 1450 1433 1507.5 1408.5 c 128,-1,2
 1565 1384 1565 1384 1607.5 1341 c 128,-1,3
 1650 1298 1650 1298 1675 1241 c 128,-1,4
 1700 1184 1700 1184 1700 1119 c 2,5,-1
 1700 895 l 2,6,7
 1700 830 1700 830 1675 773 c 128,-1,8
 1650 716 1650 716 1607.5 673 c 128,-1,9
 1565 630 1565 630 1507.5 605.5 c 128,-1,10
 1450 581 1450 581 1386 581 c 2,11,-1
 420 581 l 1,12,-1
 420 0 l 1,13,-1
 314 0 l 2,14,15
 249 0 249 0 192 24.5 c 128,-1,16
 135 49 135 49 92 92 c 128,-1,17
 49 135 49 135 24.5 192 c 128,-1,18
 0 249 0 249 0 314 c 2,19,-1
 0 1119 l 2,20,21
 0 1184 0 1184 24.5 1241 c 128,-1,22
 49 1298 49 1298 92 1341 c 128,-1,23
 135 1384 135 1384 192 1408.5 c 128,-1,24
 249 1433 249 1433 314 1433 c 2,25,-1
 1386 1433 l 2,0,1
1187 854 m 2,26,27
 1229 854 1229 854 1259 879.5 c 128,-1,28
 1289 905 1289 905 1289 948 c 2,29,-1
 1289 989 l 2,30,31
 1289 1010 1289 1010 1281 1029 c 128,-1,32
 1273 1048 1273 1048 1259 1062 c 128,-1,33
 1245 1076 1245 1076 1226.5 1084 c 128,-1,34
 1208 1092 1208 1092 1187 1092 c 2,35,-1
 420 1092 l 1,36,-1
 420 854 l 1,37,-1
 1187 854 l 2,26,27
EndSplineSet
EndChar

StartChar: Q
Encoding: 81 81 46
Width: 2010
Flags: W
LayerCount: 2
Fore
SplineSet
1592 1434 m 2,0,1
 1656 1434 1656 1434 1713 1409.5 c 128,-1,2
 1770 1385 1770 1385 1813 1342 c 128,-1,3
 1856 1299 1856 1299 1880.5 1242 c 128,-1,4
 1905 1185 1905 1185 1905 1120 c 2,5,-1
 1905 314 l 2,6,7
 1905 249 1905 249 1880.5 192 c 128,-1,8
 1856 135 1856 135 1813 92.5 c 128,-1,9
 1770 50 1770 50 1713 25 c 128,-1,10
 1656 0 1656 0 1592 0 c 2,11,-1
 1130 0 l 1,12,-1
 1130 -263 l 1,13,-1
 958 -263 l 2,14,15
 923 -263 923 -263 891.5 -248.5 c 128,-1,16
 860 -234 860 -234 837 -209 c 128,-1,17
 814 -184 814 -184 800.5 -150 c 128,-1,18
 787 -116 787 -116 787 -78 c 2,19,-1
 787 0 l 1,20,-1
 315 0 l 2,21,22
 250 0 250 0 193 25 c 128,-1,23
 136 50 136 50 93 92.5 c 128,-1,24
 50 135 50 135 25.5 192 c 128,-1,25
 1 249 1 249 1 314 c 2,26,-1
 1 1120 l 2,27,28
 1 1185 1 1185 25.5 1242 c 128,-1,29
 50 1299 50 1299 93 1342 c 128,-1,30
 136 1385 136 1385 193 1409.5 c 128,-1,31
 250 1434 250 1434 315 1434 c 2,32,-1
 1592 1434 l 2,0,1
1485 1092 m 1,33,-1
 421 1092 l 1,34,-1
 421 342 l 1,35,-1
 787 342 l 1,36,-1
 787 717 l 1,37,-1
 958 717 l 2,38,39
 994 717 994 717 1025 702.5 c 128,-1,40
 1056 688 1056 688 1079.5 663 c 128,-1,41
 1103 638 1103 638 1116.5 604.5 c 128,-1,42
 1130 571 1130 571 1130 533 c 2,43,-1
 1130 342 l 1,44,-1
 1485 342 l 1,45,-1
 1485 1092 l 1,33,-1
EndSplineSet
EndChar

StartChar: R
Encoding: 82 82 47
Width: 1790
Flags: W
LayerCount: 2
Fore
SplineSet
1289 480 m 2,0,1
 1289 501 1289 501 1281 519.5 c 128,-1,2
 1273 538 1273 538 1259 551.5 c 128,-1,3
 1245 565 1245 565 1226 573 c 128,-1,4
 1207 581 1207 581 1186 581 c 2,5,-1
 420 581 l 1,6,-1
 420 0 l 1,7,-1
 314 0 l 2,8,9
 249 0 249 0 192 24.5 c 128,-1,10
 135 49 135 49 92 92 c 128,-1,11
 49 135 49 135 24.5 192 c 128,-1,12
 0 249 0 249 0 314 c 2,13,-1
 0 1119 l 2,14,15
 0 1184 0 1184 24.5 1241 c 128,-1,16
 49 1298 49 1298 92 1341 c 128,-1,17
 135 1384 135 1384 192 1408.5 c 128,-1,18
 249 1433 249 1433 314 1433 c 2,19,-1
 1386 1433 l 2,20,21
 1450 1433 1450 1433 1507 1408.5 c 128,-1,22
 1564 1384 1564 1384 1607 1341 c 128,-1,23
 1650 1298 1650 1298 1674.5 1241 c 128,-1,24
 1699 1184 1699 1184 1699 1119 c 2,25,-1
 1699 905 l 1,26,27
 1698 891 1698 891 1696 880 c 256,28,29
 1694 869 1694 869 1692.5 859 c 128,-1,30
 1691 849 1691 849 1689 844 c 0,31,32
 1679 817 1679 817 1662 794 c 128,-1,33
 1645 771 1645 771 1622.5 754.5 c 128,-1,34
 1600 738 1600 738 1572.5 729 c 128,-1,35
 1545 720 1545 720 1515 720 c 1,36,37
 1553 720 1553 720 1586.5 705.5 c 128,-1,38
 1620 691 1620 691 1645 666 c 128,-1,39
 1670 641 1670 641 1684.5 607.5 c 128,-1,40
 1699 574 1699 574 1699 536 c 2,41,-1
 1699 0 l 1,42,-1
 1289 0 l 1,43,-1
 1289 480 l 2,0,1
1186 854 m 2,44,45
 1207 854 1207 854 1226 862.5 c 128,-1,46
 1245 871 1245 871 1259 885.5 c 128,-1,47
 1273 900 1273 900 1281 919 c 128,-1,48
 1289 938 1289 938 1289 959 c 2,49,-1
 1289 989 l 2,50,51
 1289 1010 1289 1010 1281 1029 c 128,-1,52
 1273 1048 1273 1048 1259 1062 c 128,-1,53
 1245 1076 1245 1076 1226 1084 c 128,-1,54
 1207 1092 1207 1092 1186 1092 c 2,55,-1
 420 1092 l 1,56,-1
 420 854 l 1,57,-1
 1186 854 l 2,44,45
EndSplineSet
EndChar

StartChar: S
Encoding: 83 83 48
Width: 1790
Flags: W
LayerCount: 2
Fore
SplineSet
419 1092 m 1,0,-1
 419 854 l 1,1,-1
 1385 854 l 2,2,3
 1449 854 1449 854 1506.5 829.5 c 128,-1,4
 1564 805 1564 805 1606.5 762 c 128,-1,5
 1649 719 1649 719 1674 662 c 128,-1,6
 1699 605 1699 605 1699 540 c 2,7,-1
 1699 314 l 2,8,9
 1699 249 1699 249 1674 192 c 128,-1,10
 1649 135 1649 135 1606.5 92 c 128,-1,11
 1564 49 1564 49 1506.5 24.5 c 128,-1,12
 1449 0 1449 0 1385 0 c 2,13,-1
 313 0 l 2,14,15
 248 0 248 0 191 24.5 c 128,-1,16
 134 49 134 49 91.5 92 c 128,-1,17
 49 135 49 135 24.5 192 c 128,-1,18
 0 249 0 249 0 314 c 2,19,-1
 0 342 l 1,20,-1
 1288 342 l 1,21,-1
 1288 580 l 1,22,-1
 280 580 l 1,23,24
 230 583 230 583 185 603 c 128,-1,25
 140 623 140 623 104 655.5 c 128,-1,26
 68 688 68 688 42.5 731.5 c 128,-1,27
 17 775 17 775 6 826 c 1,28,29
 6 826 6 826 5.5 838.5 c 128,-1,30
 5 851 5 851 4 871.5 c 128,-1,31
 3 892 3 892 2.5 918.5 c 128,-1,32
 2 945 2 945 2 973 c 0,33,34
 1 1037 1 1037 0 1120 c 0,35,36
 0 1184 0 1184 24.5 1241.5 c 128,-1,37
 49 1299 49 1299 91.5 1341.5 c 128,-1,38
 134 1384 134 1384 191 1409 c 128,-1,39
 248 1434 248 1434 313 1434 c 2,40,-1
 1385 1434 l 2,41,42
 1449 1434 1449 1434 1506.5 1409 c 128,-1,43
 1564 1384 1564 1384 1606.5 1341.5 c 128,-1,44
 1649 1299 1649 1299 1674 1241.5 c 128,-1,45
 1699 1184 1699 1184 1699 1120 c 2,46,-1
 1699 1092 l 1,47,-1
 419 1092 l 1,0,-1
4 838 m 1,48,-1
 4 840 l 1,49,-1
 4 838 l 1,48,-1
EndSplineSet
EndChar

StartChar: T
Encoding: 84 84 49
Width: 1790
Flags: W
LayerCount: 2
Fore
SplineSet
1699 1092 m 1,0,-1
 1060 1092 l 1,1,-1
 1060 0 l 1,2,-1
 640 0 l 1,3,-1
 640 1092 l 1,4,-1
 0 1092 l 1,5,-1
 0 1120 l 2,6,7
 0 1185 0 1185 24.5 1242 c 128,-1,8
 49 1299 49 1299 92 1342 c 128,-1,9
 135 1385 135 1385 192 1409.5 c 128,-1,10
 249 1434 249 1434 314 1434 c 2,11,-1
 1386 1434 l 2,12,13
 1450 1434 1450 1434 1507 1409.5 c 128,-1,14
 1564 1385 1564 1385 1607 1342 c 128,-1,15
 1650 1299 1650 1299 1674.5 1242 c 128,-1,16
 1699 1185 1699 1185 1699 1120 c 2,17,-1
 1699 1092 l 1,0,-1
EndSplineSet
EndChar

StartChar: U
Encoding: 85 85 50
Width: 2005
Flags: W
LayerCount: 2
Fore
SplineSet
1903 1434 m 1,0,-1
 1903 314 l 2,1,2
 1903 249 1903 249 1878.5 192 c 128,-1,3
 1854 135 1854 135 1811 92.5 c 128,-1,4
 1768 50 1768 50 1711 25 c 128,-1,5
 1654 0 1654 0 1590 0 c 2,6,-1
 313 0 l 2,7,8
 248 0 248 0 191.5 25 c 128,-1,9
 135 50 135 50 92 92.5 c 128,-1,10
 49 135 49 135 24.5 192 c 128,-1,11
 0 249 0 249 0 314 c 2,12,-1
 0 1434 l 1,13,-1
 419 1434 l 1,14,-1
 419 342 l 1,15,-1
 1484 342 l 1,16,-1
 1484 1434 l 1,17,-1
 1903 1434 l 1,0,-1
EndSplineSet
EndChar

StartChar: V
Encoding: 86 86 51
Width: 1650
Flags: W
LayerCount: 2
Fore
SplineSet
1112 1434 m 1,0,-1
 1600 1434 l 1,1,-1
 799 0 l 1,2,-1
 0 1434 l 1,3,-1
 485 1434 l 1,4,-1
 799 844 l 1,5,-1
 1112 1434 l 1,6,-1
 1112 1434 l 1,0,-1
EndSplineSet
EndChar

StartChar: W
Encoding: 87 87 52
Width: 2000
Flags: W
LayerCount: 2
Fore
SplineSet
0 1206 m 2,0,1
 0 1253 0 1253 24.5 1294.5 c 128,-1,2
 49 1336 49 1336 91.5 1367 c 128,-1,3
 134 1398 134 1398 191 1416 c 128,-1,4
 248 1434 248 1434 313 1434 c 2,5,-1
 419 1434 l 1,6,-1
 420 342 l 1,7,-1
 741 342 l 1,8,-1
 741 1434 l 1,9,-1
 1161 1434 l 1,10,-1
 1161 342 l 1,11,-1
 1483 342 l 1,12,-1
 1483 1434 l 1,13,-1
 1590 1434 l 2,14,15
 1654 1434 1654 1434 1711 1416 c 128,-1,16
 1768 1398 1768 1398 1811 1367 c 128,-1,17
 1854 1336 1854 1336 1878.5 1294.5 c 128,-1,18
 1903 1253 1903 1253 1903 1206 c 2,19,-1
 1903 314 l 2,20,21
 1903 249 1903 249 1878.5 192 c 128,-1,22
 1854 135 1854 135 1811 92.5 c 128,-1,23
 1768 50 1768 50 1711 25 c 128,-1,24
 1654 0 1654 0 1590 0 c 2,25,-1
 313 0 l 2,26,27
 248 0 248 0 191 25 c 128,-1,28
 134 50 134 50 91.5 92.5 c 128,-1,29
 49 135 49 135 24.5 192 c 128,-1,30
 0 249 0 249 0 314 c 2,31,-1
 0 1206 l 2,0,1
EndSplineSet
EndChar

StartChar: X
Encoding: 88 88 53
Width: 1730
Flags: W
LayerCount: 2
Fore
SplineSet
1652 0 m 1,0,-1
 1108 0 l 1,1,-1
 826 342 l 1,2,-1
 544 0 l 1,3,-1
 0 0 l 1,4,5
 156 189 156 189 282 342 c 0,6,7
 336 407 336 407 388.5 471 c 128,-1,8
 441 535 441 535 483.5 586.5 c 128,-1,9
 526 638 526 638 555 673.5 c 128,-1,10
 584 709 584 709 591 717 c 1,11,12
 584 725 584 725 555 760 c 128,-1,13
 526 795 526 795 483.5 847 c 128,-1,14
 441 899 441 899 388.5 963 c 128,-1,15
 336 1027 336 1027 282 1092 c 0,16,17
 156 1245 156 1245 0 1434 c 1,18,-1
 544 1434 l 1,19,-1
 826 1092 l 1,20,-1
 1108 1434 l 1,21,-1
 1652 1434 l 1,22,-1
 1061 717 l 1,23,-1
 1652 0 l 1,0,-1
EndSplineSet
EndChar

StartChar: Y
Encoding: 89 89 54
Width: 1700
Flags: W
LayerCount: 2
Fore
SplineSet
1652 1434 m 1,0,-1
 1036 687 l 1,1,-1
 1036 0 l 1,2,-1
 929 0 l 2,3,4
 864 0 864 0 807.5 24.5 c 128,-1,5
 751 49 751 49 708 92 c 128,-1,6
 665 135 665 135 640.5 192 c 128,-1,7
 616 249 616 249 616 314 c 2,8,-1
 616 687 l 1,9,10
 615 688 615 688 600 706 c 128,-1,11
 585 724 585 724 561 752.5 c 128,-1,12
 537 781 537 781 507 817.5 c 128,-1,13
 477 854 477 854 446 892 c 2,14,-1
 280 1094 l 1,15,-1
 0 1434 l 1,16,-1
 544 1434 l 1,17,-1
 826 1092 l 1,18,-1
 1107 1434 l 1,19,-1
 1652 1434 l 1,0,-1
EndSplineSet
EndChar

StartChar: Z
Encoding: 90 90 55
Width: 1800
Flags: W
LayerCount: 2
Fore
SplineSet
591 342 m 1,0,-1
 1699 342 l 1,1,-1
 1699 314 l 2,2,3
 1699 249 1699 249 1674.5 192 c 128,-1,4
 1650 135 1650 135 1607 92 c 128,-1,5
 1564 49 1564 49 1507 24.5 c 128,-1,6
 1450 0 1450 0 1386 0 c 2,7,-1
 314 0 l 2,8,9
 253 0 253 0 199 22 c 128,-1,10
 145 44 145 44 103 82 c 1,11,-1
 59 131 l 1,12,13
 31 170 31 170 15.5 216.5 c 128,-1,14
 0 263 0 263 0 314 c 1,15,-1
 4 342 l 1,16,17
 11 420 11 420 53.5 487 c 128,-1,18
 96 554 96 554 169 593 c 2,19,-1
 1108 1092 l 1,20,-1
 0 1092 l 1,21,-1
 0 1120 l 2,22,23
 0 1184 0 1184 24.5 1241.5 c 128,-1,24
 49 1299 49 1299 92 1341.5 c 128,-1,25
 135 1384 135 1384 192 1409 c 128,-1,26
 249 1434 249 1434 314 1434 c 2,27,-1
 1386 1434 l 2,28,29
 1447 1434 1447 1434 1500.5 1412 c 128,-1,30
 1554 1390 1554 1390 1596 1352 c 1,31,-1
 1640 1303 l 1,32,33
 1668 1264 1668 1264 1683.5 1217.5 c 128,-1,34
 1699 1171 1699 1171 1699 1120 c 1,35,-1
 1695 1092 l 1,36,37
 1688 1014 1688 1014 1645.5 947 c 128,-1,38
 1603 880 1603 880 1530 841 c 2,39,-1
 591 342 l 1,0,-1
EndSplineSet
EndChar

StartChar: bracketleft
Encoding: 91 91 56
Width: 613
Flags: W
LayerCount: 2
Fore
SplineSet
594 -506 m 1,0,-1
 314 -506 l 2,1,2
 249 -506 249 -506 192 -481 c 128,-1,3
 135 -456 135 -456 92 -413.5 c 128,-1,4
 49 -371 49 -371 24.5 -314 c 128,-1,5
 0 -257 0 -257 0 -192 c 2,6,-1
 0 1282 l 2,7,8
 0 1346 0 1346 24.5 1403.5 c 128,-1,9
 49 1461 49 1461 92 1503.5 c 128,-1,10
 135 1546 135 1546 192 1571 c 128,-1,11
 249 1596 249 1596 314 1596 c 2,12,-1
 594 1596 l 1,13,-1
 594 1254 l 1,14,-1
 420 1254 l 1,15,-1
 420 -164 l 1,16,-1
 594 -164 l 1,17,-1
 594 -506 l 1,0,-1
EndSplineSet
EndChar

StartChar: backslash
Encoding: 92 92 57
Width: 1220
Flags: W
LayerCount: 2
Fore
SplineSet
447 1596 m 1,0,-1
 1212 -504 l 1,1,-1
 766 -504 l 1,2,-1
 0 1596 l 1,3,-1
 447 1596 l 1,4,-1
 447 1596 l 1,0,-1
EndSplineSet
EndChar

StartChar: bracketright
Encoding: 93 93 58
Width: 720
Flags: W
LayerCount: 2
Fore
SplineSet
281 1596 m 1,0,1
 345 1596 345 1596 402 1571 c 128,-1,2
 459 1546 459 1546 502 1503.5 c 128,-1,3
 545 1461 545 1461 569.5 1403.5 c 128,-1,4
 594 1346 594 1346 594 1282 c 2,5,-1
 594 -192 l 2,6,7
 594 -257 594 -257 569.5 -314 c 128,-1,8
 545 -371 545 -371 502 -413.5 c 128,-1,9
 459 -456 459 -456 402 -481 c 128,-1,10
 345 -506 345 -506 281 -506 c 2,11,-1
 0 -506 l 1,12,-1
 0 -164 l 1,13,-1
 174 -164 l 1,14,-1
 174 1254 l 1,15,-1
 0 1254 l 1,16,-1
 0 1596 l 1,17,-1
 281 1596 l 1,18,-1
 281 1596 l 1,0,1
EndSplineSet
EndChar

StartChar: a
Encoding: 97 97 59
Width: 1490
Flags: W
LayerCount: 2
Fore
SplineSet
1079 1093 m 2,0,1
 1144 1093 1144 1093 1201 1068 c 128,-1,2
 1258 1043 1258 1043 1300.5 1000.5 c 128,-1,3
 1343 958 1343 958 1367.5 900.5 c 128,-1,4
 1392 843 1392 843 1392 779 c 2,5,-1
 1392 0 l 1,6,-1
 314 0 l 2,7,8
 253 0 253 0 199 22 c 128,-1,9
 145 44 145 44 103.5 82 c 128,-1,10
 62 120 62 120 35.5 172 c 128,-1,11
 9 224 9 224 3 283 c 1,12,13
 1 291 1 291 1 297.5 c 128,-1,14
 1 304 1 304 0 312 c 1,15,16
 1 376 1 376 26 432.5 c 128,-1,17
 51 489 51 489 93.5 531.5 c 128,-1,18
 136 574 136 574 192.5 598.5 c 128,-1,19
 249 623 249 623 314 623 c 2,20,-1
 973 623 l 1,21,-1
 973 752 l 1,22,-1
 0 752 l 1,23,-1
 0 779 l 2,24,25
 0 843 0 843 25 900.5 c 128,-1,26
 50 958 50 958 92.5 1000.5 c 128,-1,27
 135 1043 135 1043 192 1068 c 128,-1,28
 249 1093 249 1093 314 1093 c 2,29,-1
 1079 1093 l 2,0,1
973 471 m 1,30,-1
 420 471 l 1,31,-1
 420 342 l 1,32,-1
 973 342 l 1,33,-1
 973 471 l 1,30,-1
EndSplineSet
EndChar

StartChar: b
Encoding: 98 98 60
Width: 1495
Flags: W
LayerCount: 2
Fore
SplineSet
1079 1091 m 2,0,1
 1143 1091 1143 1091 1200 1066.5 c 128,-1,2
 1257 1042 1257 1042 1300 999.5 c 128,-1,3
 1343 957 1343 957 1367.5 900 c 128,-1,4
 1392 843 1392 843 1392 779 c 2,5,-1
 1392 312 l 2,6,7
 1392 247 1392 247 1367.5 190.5 c 128,-1,8
 1343 134 1343 134 1300 91.5 c 128,-1,9
 1257 49 1257 49 1200 24.5 c 128,-1,10
 1143 0 1143 0 1079 0 c 2,11,-1
 314 0 l 2,12,13
 249 0 249 0 192 24.5 c 128,-1,14
 135 49 135 49 92.5 91.5 c 128,-1,15
 50 134 50 134 25 190.5 c 128,-1,16
 0 247 0 247 0 312 c 2,17,-1
 0 1283 l 2,18,19
 0 1347 0 1347 25 1404 c 128,-1,20
 50 1461 50 1461 92.5 1504 c 128,-1,21
 135 1547 135 1547 192 1571.5 c 128,-1,22
 249 1596 249 1596 314 1596 c 2,23,-1
 420 1596 l 1,24,-1
 420 1091 l 1,25,-1
 1079 1091 l 2,0,1
972 751 m 1,26,-1
 420 751 l 1,27,-1
 420 341 l 1,28,-1
 972 341 l 1,29,-1
 972 751 l 1,26,-1
EndSplineSet
EndChar

StartChar: c
Encoding: 99 99 61
Width: 1495
Flags: W
LayerCount: 2
Fore
SplineSet
1392 342 m 1,0,-1
 1392 313 l 2,1,2
 1392 248 1392 248 1367.5 191.5 c 128,-1,3
 1343 135 1343 135 1300 92 c 128,-1,4
 1257 49 1257 49 1200 24.5 c 128,-1,5
 1143 0 1143 0 1079 0 c 2,6,-1
 314 0 l 2,7,8
 249 0 249 0 192 24.5 c 128,-1,9
 135 49 135 49 92 92 c 128,-1,10
 49 135 49 135 24.5 191.5 c 128,-1,11
 0 248 0 248 0 313 c 2,12,-1
 0 779 l 2,13,14
 0 843 0 843 24.5 900.5 c 128,-1,15
 49 958 49 958 92 1000.5 c 128,-1,16
 135 1043 135 1043 192 1068 c 128,-1,17
 249 1093 249 1093 314 1093 c 2,18,-1
 1079 1093 l 2,19,20
 1143 1093 1143 1093 1200 1068 c 128,-1,21
 1257 1043 1257 1043 1300 1000.5 c 128,-1,22
 1343 958 1343 958 1367.5 900.5 c 128,-1,23
 1392 843 1392 843 1392 779 c 2,24,-1
 1392 752 l 1,25,-1
 420 752 l 1,26,-1
 420 342 l 1,27,-1
 1392 342 l 1,0,-1
EndSplineSet
EndChar

StartChar: d
Encoding: 100 100 62
Width: 1490
Flags: W
LayerCount: 2
Fore
SplineSet
1392 1596 m 1,0,-1
 1392 313 l 2,1,2
 1392 248 1392 248 1367.5 191.5 c 128,-1,3
 1343 135 1343 135 1300 92 c 128,-1,4
 1257 49 1257 49 1200 24.5 c 128,-1,5
 1143 0 1143 0 1078 0 c 2,6,-1
 313 0 l 2,7,8
 248 0 248 0 191.5 24.5 c 128,-1,9
 135 49 135 49 92 92 c 128,-1,10
 49 135 49 135 24.5 191.5 c 128,-1,11
 0 248 0 248 0 313 c 2,12,-1
 0 779 l 2,13,14
 0 843 0 843 24.5 900 c 128,-1,15
 49 957 49 957 92 1000 c 128,-1,16
 135 1043 135 1043 191.5 1067.5 c 128,-1,17
 248 1092 248 1092 313 1092 c 2,18,-1
 972 1092 l 1,19,-1
 972 1596 l 1,20,-1
 1392 1596 l 1,0,-1
972 751 m 1,21,-1
 420 751 l 1,22,-1
 420 341 l 1,23,-1
 972 341 l 1,24,-1
 972 751 l 1,21,-1
EndSplineSet
EndChar

StartChar: e
Encoding: 101 101 63
Width: 1480
Flags: W
LayerCount: 2
Fore
SplineSet
420 471 m 1,0,-1
 420 342 l 1,1,-1
 1392 342 l 1,2,-1
 1392 313 l 2,3,4
 1392 248 1392 248 1367.5 191.5 c 128,-1,5
 1343 135 1343 135 1300 92 c 128,-1,6
 1257 49 1257 49 1200 24.5 c 128,-1,7
 1143 0 1143 0 1079 0 c 2,8,-1
 314 0 l 2,9,10
 249 0 249 0 192 24.5 c 128,-1,11
 135 49 135 49 92.5 92 c 128,-1,12
 50 135 50 135 25 191.5 c 128,-1,13
 0 248 0 248 0 313 c 2,14,-1
 0 779 l 2,15,16
 0 843 0 843 25 900.5 c 128,-1,17
 50 958 50 958 92.5 1000.5 c 128,-1,18
 135 1043 135 1043 192 1068 c 128,-1,19
 249 1093 249 1093 314 1093 c 2,20,-1
 1079 1093 l 2,21,22
 1143 1093 1143 1093 1200 1068 c 128,-1,23
 1257 1043 1257 1043 1300 1000.5 c 128,-1,24
 1343 958 1343 958 1367.5 900.5 c 128,-1,25
 1392 843 1392 843 1392 779 c 2,26,-1
 1392 471 l 1,27,-1
 420 471 l 1,0,-1
420 623 m 1,28,-1
 972 623 l 1,29,-1
 972 752 l 1,30,-1
 420 752 l 1,31,-1
 420 623 l 1,28,-1
EndSplineSet
EndChar

StartChar: f
Encoding: 102 102 64
Width: 1000
Flags: W
LayerCount: 2
Fore
SplineSet
803 751 m 1,0,-1
 507 751 l 1,1,-1
 507 0 l 1,2,-1
 87 0 l 1,3,-1
 87 751 l 1,4,-1
 0 751 l 1,5,-1
 0 1091 l 1,6,-1
 87 1091 l 1,7,-1
 87 1283 l 2,8,9
 87 1346 87 1346 110.5 1402 c 128,-1,10
 134 1458 134 1458 175 1500.5 c 128,-1,11
 216 1543 216 1543 270.5 1568.5 c 128,-1,12
 325 1594 325 1594 388 1596 c 1,13,-1
 910 1596 l 2,14,15
 974 1596 974 1596 1031 1571.5 c 128,-1,16
 1088 1547 1088 1547 1131 1504 c 128,-1,17
 1174 1461 1174 1461 1198.5 1404 c 128,-1,18
 1223 1347 1223 1347 1223 1283 c 2,19,-1
 1223 1254 l 1,20,-1
 507 1254 l 1,21,-1
 507 1091 l 1,22,-1
 803 1091 l 1,23,-1
 803 751 l 1,0,-1
EndSplineSet
EndChar

StartChar: g
Encoding: 103 103 65
Width: 1495
Flags: W
LayerCount: 2
Fore
SplineSet
1078 1093 m 2,0,1
 1142 1093 1142 1093 1199.5 1068.5 c 128,-1,2
 1257 1044 1257 1044 1299.5 1001 c 128,-1,3
 1342 958 1342 958 1367 901 c 128,-1,4
 1392 844 1392 844 1392 780 c 2,5,-1
 1392 -191 l 2,6,7
 1392 -256 1392 -256 1367 -312.5 c 128,-1,8
 1342 -369 1342 -369 1299.5 -412 c 128,-1,9
 1257 -455 1257 -455 1199.5 -479.5 c 128,-1,10
 1142 -504 1142 -504 1078 -504 c 2,11,-1
 313 -504 l 2,12,13
 248 -504 248 -504 191.5 -479.5 c 128,-1,14
 135 -455 135 -455 92 -412 c 128,-1,15
 49 -369 49 -369 24.5 -312.5 c 128,-1,16
 0 -256 0 -256 0 -191 c 2,17,-1
 0 -162 l 1,18,-1
 972 -162 l 1,19,-1
 972 0 l 1,20,-1
 313 0 l 2,21,22
 248 0 248 0 191.5 25 c 128,-1,23
 135 50 135 50 92 92.5 c 128,-1,24
 49 135 49 135 24.5 192 c 128,-1,25
 0 249 0 249 0 314 c 2,26,-1
 0 780 l 2,27,28
 0 844 0 844 24.5 901 c 128,-1,29
 49 958 49 958 92 1001 c 128,-1,30
 135 1044 135 1044 191.5 1068.5 c 128,-1,31
 248 1093 248 1093 313 1093 c 2,32,-1
 1078 1093 l 2,0,1
972 751 m 1,33,-1
 419 751 l 1,34,-1
 419 341 l 1,35,-1
 972 341 l 1,36,-1
 972 751 l 1,33,-1
EndSplineSet
EndChar

StartChar: h
Encoding: 104 104 66
Width: 1480
Flags: W
LayerCount: 2
Fore
SplineSet
1077 1092 m 1,0,1
 1142 1092 1142 1092 1199 1067.5 c 128,-1,2
 1256 1043 1256 1043 1299 1000 c 128,-1,3
 1342 957 1342 957 1366.5 900 c 128,-1,4
 1391 843 1391 843 1391 779 c 2,5,-1
 1391 0 l 1,6,-1
 971 0 l 1,7,-1
 971 751 l 1,8,-1
 419 751 l 1,9,-1
 419 0 l 1,10,-1
 0 0 l 1,11,-1
 0 1309 l 1,12,13
 4 1369 4 1369 30.5 1421.5 c 128,-1,14
 57 1474 57 1474 99 1513 c 128,-1,15
 141 1552 141 1552 195.5 1574 c 128,-1,16
 250 1596 250 1596 311 1596 c 2,17,-1
 419 1596 l 1,18,-1
 419 1092 l 1,19,-1
 1077 1092 l 1,20,-1
 1077 1092 l 1,0,1
EndSplineSet
EndChar

StartChar: i
Encoding: 105 105 67
Width: 530
Flags: W
LayerCount: 2
Fore
SplineSet
0 1091 m 1,0,-1
 420 1091 l 1,1,-1
 420 0 l 1,2,-1
 0 0 l 1,3,-1
 0 1091 l 1,0,-1
0 1283 m 2,4,5
 0 1346 0 1346 23.5 1402 c 128,-1,6
 47 1458 47 1458 88 1500.5 c 128,-1,7
 129 1543 129 1543 184 1568.5 c 128,-1,8
 239 1594 239 1594 301 1596 c 1,9,-1
 420 1596 l 1,10,-1
 420 1254 l 1,11,-1
 0 1254 l 1,12,-1
 0 1283 l 2,4,5
EndSplineSet
EndChar

StartChar: j
Encoding: 106 106 68
Width: 530
Flags: W
LayerCount: 2
Fore
SplineSet
0 1283 m 2,0,1
 0 1346 0 1346 23.5 1402 c 128,-1,2
 47 1458 47 1458 88 1500.5 c 128,-1,3
 129 1543 129 1543 183.5 1568.5 c 128,-1,4
 238 1594 238 1594 301 1596 c 1,5,-1
 420 1596 l 1,6,-1
 420 1254 l 1,7,-1
 0 1254 l 1,8,-1
 0 1283 l 2,0,1
0 1091 m 1,9,-1
 420 1091 l 1,10,-1
 420 -505 l 1,11,-1
 -174 -505 l 1,12,-1
 -174 -163 l 1,13,-1
 0 -163 l 1,14,-1
 0 1091 l 1,9,-1
EndSplineSet
EndChar

StartChar: k
Encoding: 107 107 69
Width: 1395
Flags: W
LayerCount: 2
Fore
SplineSet
1302 0 m 1,0,-1
 642 0 l 1,1,-1
 465 146 l 1,2,-1
 420 91 l 1,3,-1
 420 0 l 1,4,-1
 0 0 l 1,5,-1
 0 1283 l 2,6,7
 0 1347 0 1347 24.5 1404 c 128,-1,8
 49 1461 49 1461 91.5 1504 c 128,-1,9
 134 1547 134 1547 191 1571.5 c 128,-1,10
 248 1596 248 1596 313 1596 c 2,11,-1
 420 1596 l 1,12,-1
 420 1091 l 1,13,-1
 420 751 l 1,14,-1
 700 1091 l 1,15,-1
 1244 1091 l 1,16,-1
 732 470 l 1,17,-1
 1302 0 l 1,0,-1
EndSplineSet
EndChar

StartChar: l
Encoding: 108 108 70
Width: 520
Flags: W
LayerCount: 2
Fore
SplineSet
420 0 m 1,0,-1
 314 0 l 2,1,2
 249 0 249 0 192 24.5 c 128,-1,3
 135 49 135 49 92.5 92 c 128,-1,4
 50 135 50 135 25 191.5 c 128,-1,5
 0 248 0 248 0 313 c 2,6,-1
 0 1596 l 1,7,-1
 420 1596 l 1,8,-1
 420 0 l 1,0,-1
EndSplineSet
EndChar

StartChar: m
Encoding: 109 109 71
Width: 1830
Flags: W
LayerCount: 2
Fore
SplineSet
1420 1091 m 1,0,1
 1485 1091 1485 1091 1542 1066.5 c 128,-1,2
 1599 1042 1599 1042 1642 999.5 c 128,-1,3
 1685 957 1685 957 1709.5 900 c 128,-1,4
 1734 843 1734 843 1734 779 c 2,5,-1
 1734 312 l 2,6,7
 1734 247 1734 247 1709.5 190.5 c 128,-1,8
 1685 134 1685 134 1642 91.5 c 128,-1,9
 1599 49 1599 49 1542 24.5 c 128,-1,10
 1485 0 1485 0 1420 0 c 2,11,-1
 1314 0 l 1,12,-1
 1314 751 l 1,13,-1
 1077 751 l 1,14,-1
 1077 0 l 1,15,-1
 657 0 l 1,16,-1
 657 751 l 1,17,-1
 420 751 l 1,18,-1
 420 0 l 1,19,-1
 314 0 l 2,20,21
 249 0 249 0 192 24.5 c 128,-1,22
 135 49 135 49 92 91.5 c 128,-1,23
 49 134 49 134 24.5 190.5 c 128,-1,24
 0 247 0 247 0 312 c 2,25,-1
 0 779 l 2,26,27
 0 843 0 843 24.5 900 c 128,-1,28
 49 957 49 957 92 999.5 c 128,-1,29
 135 1042 135 1042 192 1066.5 c 128,-1,30
 249 1091 249 1091 314 1091 c 2,31,-1
 1420 1091 l 1,32,-1
 1420 1091 l 1,0,1
EndSplineSet
EndChar

StartChar: n
Encoding: 110 110 72
Width: 1480
Flags: W
LayerCount: 2
Fore
SplineSet
0 1093 m 1,0,-1
 1079 1093 l 2,1,2
 1143 1093 1143 1093 1200 1068 c 128,-1,3
 1257 1043 1257 1043 1300 1000.5 c 128,-1,4
 1343 958 1343 958 1367.5 900.5 c 128,-1,5
 1392 843 1392 843 1392 779 c 2,6,-1
 1392 0 l 1,7,-1
 972 0 l 1,8,-1
 972 751 l 1,9,-1
 420 751 l 1,10,-1
 420 0 l 1,11,-1
 0 0 l 1,12,-1
 0 1093 l 1,0,-1
EndSplineSet
EndChar

StartChar: o
Encoding: 111 111 73
Width: 1480
Flags: W
LayerCount: 2
Fore
SplineSet
1078 1093 m 2,0,1
 1143 1093 1143 1093 1200 1068 c 128,-1,2
 1257 1043 1257 1043 1300 1000.5 c 128,-1,3
 1343 958 1343 958 1367.5 900.5 c 128,-1,4
 1392 843 1392 843 1392 779 c 2,5,-1
 1392 313 l 2,6,7
 1392 248 1392 248 1367.5 191.5 c 128,-1,8
 1343 135 1343 135 1300 92 c 128,-1,9
 1257 49 1257 49 1200 24.5 c 128,-1,10
 1143 0 1143 0 1078 0 c 2,11,-1
 313 0 l 2,12,13
 248 0 248 0 191 24.5 c 128,-1,14
 134 49 134 49 91.5 92 c 128,-1,15
 49 135 49 135 24.5 191.5 c 128,-1,16
 0 248 0 248 0 313 c 2,17,-1
 0 779 l 2,18,19
 0 843 0 843 24.5 900.5 c 128,-1,20
 49 958 49 958 91.5 1000.5 c 128,-1,21
 134 1043 134 1043 191 1068 c 128,-1,22
 248 1093 248 1093 313 1093 c 2,23,-1
 1078 1093 l 2,0,1
972 752 m 1,24,-1
 420 752 l 1,25,-1
 420 342 l 1,26,-1
 972 342 l 1,27,-1
 972 752 l 1,24,-1
EndSplineSet
EndChar

StartChar: p
Encoding: 112 112 74
Width: 1480
Flags: W
LayerCount: 2
Fore
SplineSet
0 780 m 2,0,1
 0 844 0 844 25 901 c 128,-1,2
 50 958 50 958 92.5 1001 c 128,-1,3
 135 1044 135 1044 192 1068.5 c 128,-1,4
 249 1093 249 1093 314 1093 c 2,5,-1
 1079 1093 l 2,6,7
 1143 1093 1143 1093 1200 1068.5 c 128,-1,8
 1257 1044 1257 1044 1300 1001 c 128,-1,9
 1343 958 1343 958 1367.5 901 c 128,-1,10
 1392 844 1392 844 1392 780 c 2,11,-1
 1392 314 l 2,12,13
 1392 249 1392 249 1367.5 192 c 128,-1,14
 1343 135 1343 135 1300 92.5 c 128,-1,15
 1257 50 1257 50 1200 25 c 128,-1,16
 1143 0 1143 0 1079 0 c 2,17,-1
 420 0 l 1,18,-1
 420 -504 l 1,19,-1
 0 -504 l 1,20,-1
 0 780 l 2,0,1
420 341 m 1,21,-1
 973 341 l 1,22,-1
 973 751 l 1,23,-1
 420 751 l 1,24,-1
 420 341 l 1,21,-1
EndSplineSet
EndChar

StartChar: q
Encoding: 113 113 75
Width: 1480
Flags: W
LayerCount: 2
Fore
SplineSet
1078 1093 m 2,0,1
 1142 1093 1142 1093 1199.5 1068.5 c 128,-1,2
 1257 1044 1257 1044 1299.5 1001 c 128,-1,3
 1342 958 1342 958 1367 901 c 128,-1,4
 1392 844 1392 844 1392 780 c 2,5,-1
 1392 -504 l 1,6,-1
 972 -504 l 1,7,-1
 972 0 l 1,8,-1
 313 0 l 2,9,10
 248 0 248 0 191 25 c 128,-1,11
 134 50 134 50 91.5 92.5 c 128,-1,12
 49 135 49 135 24.5 192 c 128,-1,13
 0 249 0 249 0 314 c 2,14,-1
 0 780 l 2,15,16
 0 844 0 844 24.5 901 c 128,-1,17
 49 958 49 958 91.5 1001 c 128,-1,18
 134 1044 134 1044 191 1068.5 c 128,-1,19
 248 1093 248 1093 313 1093 c 2,20,-1
 1078 1093 l 2,0,1
972 751 m 1,21,-1
 420 751 l 1,22,-1
 420 341 l 1,23,-1
 972 341 l 1,24,-1
 972 751 l 1,21,-1
EndSplineSet
EndChar

StartChar: r
Encoding: 114 114 76
Width: 1265
Flags: W
LayerCount: 2
Fore
SplineSet
420 750 m 1,0,-1
 420 0 l 1,1,-1
 0 0 l 1,2,-1
 0 1092 l 1,3,-1
 934 1092 l 2,4,5
 998 1092 998 1092 1055 1067.5 c 128,-1,6
 1112 1043 1112 1043 1155 1000 c 128,-1,7
 1198 957 1198 957 1222.5 900 c 128,-1,8
 1247 843 1247 843 1247 779 c 2,9,-1
 1247 750 l 1,10,-1
 420 750 l 1,0,-1
EndSplineSet
EndChar

StartChar: s
Encoding: 115 115 77
Width: 1495
Flags: W
LayerCount: 2
Fore
SplineSet
398 751 m 1,0,-1
 398 622 l 1,1,-1
 1115 622 l 2,2,3
 1172 622 1172 622 1222.5 600 c 128,-1,4
 1273 578 1273 578 1310.5 540.5 c 128,-1,5
 1348 503 1348 503 1370 452.5 c 128,-1,6
 1392 402 1392 402 1392 345 c 2,7,-1
 1392 313 l 2,8,9
 1392 248 1392 248 1367.5 191 c 128,-1,10
 1343 134 1343 134 1300 91.5 c 128,-1,11
 1257 49 1257 49 1200 24.5 c 128,-1,12
 1143 0 1143 0 1078 0 c 2,13,-1
 314 0 l 2,14,15
 249 0 249 0 192 24.5 c 128,-1,16
 135 49 135 49 92 91.5 c 128,-1,17
 49 134 49 134 24.5 191 c 128,-1,18
 0 248 0 248 0 313 c 2,19,-1
 0 341 l 1,20,-1
 982 341 l 1,21,-1
 982 470 l 1,22,-1
 867 470 l 1,23,-1
 277 470 l 2,24,25
 220 470 220 470 169.5 492 c 128,-1,26
 119 514 119 514 81.5 551.5 c 128,-1,27
 44 589 44 589 22 639.5 c 128,-1,28
 0 690 0 690 0 747 c 2,29,-1
 0 779 l 2,30,31
 0 843 0 843 24.5 900 c 128,-1,32
 49 957 49 957 92 999.5 c 128,-1,33
 135 1042 135 1042 192 1066.5 c 128,-1,34
 249 1091 249 1091 314 1091 c 2,35,-1
 1078 1091 l 2,36,37
 1143 1091 1143 1091 1200 1066.5 c 128,-1,38
 1257 1042 1257 1042 1300 999.5 c 128,-1,39
 1343 957 1343 957 1367.5 900 c 128,-1,40
 1392 843 1392 843 1392 779 c 2,41,-1
 1392 751 l 1,42,-1
 398 751 l 1,0,-1
EndSplineSet
EndChar

StartChar: t
Encoding: 116 116 78
Width: 1175
Flags: W
LayerCount: 2
Fore
SplineSet
594 751 m 1,0,-1
 594 341 l 1,1,-1
 1059 341 l 1,2,-1
 1059 0 l 1,3,-1
 487 0 l 2,4,5
 422 0 422 0 365.5 24.5 c 128,-1,6
 309 49 309 49 266 91.5 c 128,-1,7
 223 134 223 134 198.5 191 c 128,-1,8
 174 248 174 248 174 313 c 2,9,-1
 174 751 l 1,10,-1
 0 751 l 1,11,-1
 0 1091 l 1,12,-1
 174 1091 l 1,13,-1
 174 1283 l 2,14,15
 174 1347 174 1347 198.5 1404 c 128,-1,16
 223 1461 223 1461 266 1504 c 128,-1,17
 309 1547 309 1547 365.5 1571.5 c 128,-1,18
 422 1596 422 1596 487 1596 c 2,19,-1
 594 1596 l 1,20,-1
 594 1091 l 1,21,-1
 1059 1091 l 1,22,-1
 1059 751 l 1,23,-1
 594 751 l 1,0,-1
EndSplineSet
EndChar

StartChar: u
Encoding: 117 117 79
Width: 1480
Flags: W
LayerCount: 2
Fore
SplineSet
1392 313 m 2,0,1
 1392 248 1392 248 1367.5 191.5 c 128,-1,2
 1343 135 1343 135 1300 92 c 128,-1,3
 1257 49 1257 49 1200 24.5 c 128,-1,4
 1143 0 1143 0 1079 0 c 2,5,-1
 314 0 l 2,6,7
 249 0 249 0 192 24.5 c 128,-1,8
 135 49 135 49 92 92 c 128,-1,9
 49 135 49 135 24.5 191.5 c 128,-1,10
 0 248 0 248 0 313 c 2,11,-1
 0 1093 l 1,12,-1
 420 1093 l 1,13,-1
 420 342 l 1,14,-1
 973 342 l 1,15,-1
 973 1093 l 1,16,-1
 1392 1093 l 1,17,-1
 1392 313 l 2,0,1
EndSplineSet
EndChar

StartChar: v
Encoding: 118 118 80
Width: 1400
Flags: W
LayerCount: 2
Fore
SplineSet
838 1091 m 1,0,-1
 1314 1091 l 1,1,-1
 657 -143 l 1,2,-1
 0 1091 l 1,3,-1
 476 1091 l 1,4,-1
 657 751 l 1,5,-1
 838 1091 l 1,6,-1
 838 1091 l 1,0,-1
EndSplineSet
EndChar

StartChar: w
Encoding: 119 119 81
Width: 1830
Flags: W
LayerCount: 2
Fore
SplineSet
1420 0 m 2,0,-1
 314 0 l 2,1,2
 249 0 249 0 192 24.5 c 128,-1,3
 135 49 135 49 92 91.5 c 128,-1,4
 49 134 49 134 24.5 190.5 c 128,-1,5
 0 247 0 247 0 312 c 2,6,-1
 0 779 l 2,7,8
 0 843 0 843 24.5 900 c 128,-1,9
 49 957 49 957 92 999.5 c 128,-1,10
 135 1042 135 1042 192 1066.5 c 128,-1,11
 249 1091 249 1091 314 1091 c 2,12,-1
 420 1091 l 1,13,-1
 420 340 l 1,14,-1
 657 340 l 1,15,-1
 657 1091 l 1,16,-1
 1077 1091 l 1,17,-1
 1077 340 l 1,18,-1
 1314 340 l 1,19,-1
 1314 1091 l 1,20,-1
 1420 1091 l 2,21,22
 1485 1091 1485 1091 1542 1066.5 c 128,-1,23
 1599 1042 1599 1042 1642 999.5 c 128,-1,24
 1685 957 1685 957 1709.5 900 c 128,-1,25
 1734 843 1734 843 1734 779 c 2,26,-1
 1734 312 l 2,27,28
 1734 247 1734 247 1709.5 190.5 c 128,-1,29
 1685 134 1685 134 1642 91.5 c 128,-1,30
 1599 49 1599 49 1542 24.5 c 128,-1,31
 1485 0 1485 0 1420 0 c 2,0,-1
EndSplineSet
EndChar

StartChar: x
Encoding: 120 120 82
Width: 1540
Flags: W
LayerCount: 2
Fore
SplineSet
1444 1091 m 1,0,-1
 994 545 l 1,1,-1
 1444 0 l 1,2,-1
 900 0 l 1,3,-1
 722 215 l 1,4,-1
 544 0 l 1,5,-1
 0 0 l 1,6,-1
 450 545 l 1,7,-1
 0 1091 l 1,8,-1
 544 1091 l 1,9,-1
 722 876 l 1,10,-1
 900 1091 l 1,11,-1
 1444 1091 l 1,12,-1
 1444 1091 l 1,0,-1
EndSplineSet
EndChar

StartChar: y
Encoding: 121 121 83
Width: 1460
Flags: W
LayerCount: 2
Fore
SplineSet
1079 1093 m 1,0,1
 1143 1093 1143 1093 1200 1068.5 c 128,-1,2
 1257 1044 1257 1044 1299.5 1001.5 c 128,-1,3
 1342 959 1342 959 1366.5 902 c 128,-1,4
 1391 845 1391 845 1391 780 c 2,5,-1
 1391 -190 l 2,6,7
 1391 -255 1391 -255 1366.5 -311.5 c 128,-1,8
 1342 -368 1342 -368 1299.5 -411 c 128,-1,9
 1257 -454 1257 -454 1200 -478.5 c 128,-1,10
 1143 -503 1143 -503 1078 -503 c 2,11,-1
 1077 -503 l 1,12,-1
 313 -503 l 2,13,14
 248 -503 248 -503 191.5 -478.5 c 128,-1,15
 135 -454 135 -454 92 -411 c 128,-1,16
 49 -368 49 -368 24.5 -311.5 c 128,-1,17
 0 -255 0 -255 0 -190 c 2,18,-1
 0 -161 l 1,19,-1
 972 -161 l 1,20,-1
 972 2 l 1,21,-1
 313 2 l 2,22,23
 248 2 248 2 191.5 26.5 c 128,-1,24
 135 51 135 51 92 93.5 c 128,-1,25
 49 136 49 136 24.5 192.5 c 128,-1,26
 0 249 0 249 0 314 c 2,27,-1
 0 781 l 2,28,29
 0 845 0 845 24.5 902 c 128,-1,30
 49 959 49 959 92 1001.5 c 128,-1,31
 135 1044 135 1044 191.5 1068.5 c 128,-1,32
 248 1093 248 1093 313 1093 c 2,33,-1
 419 1093 l 1,34,-1
 419 342 l 1,35,-1
 972 342 l 1,36,-1
 972 1093 l 1,37,-1
 1079 1093 l 1,38,-1
 1079 1093 l 1,0,1
EndSplineSet
EndChar

StartChar: z
Encoding: 122 122 84
Width: 1495
Flags: W
LayerCount: 2
Fore
SplineSet
578 341 m 1,0,-1
 1392 341 l 1,1,-1
 1392 312 l 2,2,3
 1392 247 1392 247 1367 190.5 c 128,-1,4
 1342 134 1342 134 1299.5 91.5 c 128,-1,5
 1257 49 1257 49 1199.5 24.5 c 128,-1,6
 1142 0 1142 0 1078 0 c 2,7,-1
 313 0 l 2,8,9
 240 0 240 0 177.5 30.5 c 128,-1,10
 115 61 115 61 72 114 c 1,11,-1
 73 114 l 1,12,13
 53 139 53 139 42.5 170 c 128,-1,14
 32 201 32 201 32 235 c 0,15,16
 32 293 32 293 61 339.5 c 128,-1,17
 90 386 90 386 138 411 c 2,18,-1
 816 751 l 1,19,-1
 0 751 l 1,20,-1
 0 779 l 2,21,22
 0 843 0 843 24.5 900 c 128,-1,23
 49 957 49 957 92 999.5 c 128,-1,24
 135 1042 135 1042 191.5 1066.5 c 128,-1,25
 248 1091 248 1091 313 1091 c 2,26,-1
 1078 1091 l 2,27,28
 1144 1091 1144 1091 1202 1065.5 c 128,-1,29
 1260 1040 1260 1040 1304 995 c 1,30,31
 1304 993 1304 993 1306 993 c 1,32,33
 1332 966 1332 966 1346 930.5 c 128,-1,34
 1360 895 1360 895 1360 854 c 0,35,36
 1360 800 1360 800 1334.5 756 c 128,-1,37
 1309 712 1309 712 1266 686 c 1,38,-1
 578 341 l 1,0,-1
EndSplineSet
EndChar

StartChar: agrave
Encoding: 224 224 85
Width: 1490
Flags: W
LayerCount: 2
Fore
SplineSet
1065 1186 m 0,0,-1
204 1528 m 1,1,-1
 1065 1186 l 1,2,-1
 1089 1126 l 1,3,-1
 324 1350 l 1,4,-1
 204 1528 l 1,1,-1
1079 1093 m 2,5,6
 1144 1093 1144 1093 1201 1068 c 128,-1,7
 1258 1043 1258 1043 1300.5 1000.5 c 128,-1,8
 1343 958 1343 958 1367.5 900.5 c 128,-1,9
 1392 843 1392 843 1392 779 c 2,10,-1
 1392 0 l 1,11,-1
 314 0 l 2,12,13
 253 0 253 0 199 22 c 128,-1,14
 145 44 145 44 103.5 82 c 128,-1,15
 62 120 62 120 35.5 172 c 128,-1,16
 9 224 9 224 3 283 c 1,17,18
 1 291 1 291 1 297.5 c 128,-1,19
 1 304 1 304 0 312 c 1,20,21
 1 376 1 376 26 432.5 c 128,-1,22
 51 489 51 489 93.5 531.5 c 128,-1,23
 136 574 136 574 192.5 598.5 c 128,-1,24
 249 623 249 623 314 623 c 2,25,-1
 973 623 l 1,26,-1
 973 752 l 1,27,-1
 0 752 l 1,28,-1
 0 779 l 2,29,30
 0 843 0 843 25 900.5 c 128,-1,31
 50 958 50 958 92.5 1000.5 c 128,-1,32
 135 1043 135 1043 192 1068 c 128,-1,33
 249 1093 249 1093 314 1093 c 2,34,-1
 1079 1093 l 2,5,6
973 471 m 1,35,-1
 420 471 l 1,36,-1
 420 342 l 1,37,-1
 973 342 l 1,38,-1
 973 471 l 1,35,-1
EndSplineSet
EndChar

StartChar: aacute
Encoding: 225 225 86
Width: 1490
Flags: W
LayerCount: 2
Fore
SplineSet
294 1174 m 1,0,-1
 1260 1518 l 1,1,-1
 1260 1386 l 1,2,-1
 288 1128 l 1,3,-1
 294 1174 l 1,0,-1
1079 1093 m 2,4,5
 1144 1093 1144 1093 1201 1068 c 128,-1,6
 1258 1043 1258 1043 1300.5 1000.5 c 128,-1,7
 1343 958 1343 958 1367.5 900.5 c 128,-1,8
 1392 843 1392 843 1392 779 c 2,9,-1
 1392 0 l 1,10,-1
 314 0 l 2,11,12
 253 0 253 0 199 22 c 128,-1,13
 145 44 145 44 103.5 82 c 128,-1,14
 62 120 62 120 35.5 172 c 128,-1,15
 9 224 9 224 3 283 c 1,16,17
 1 291 1 291 1 297.5 c 128,-1,18
 1 304 1 304 0 312 c 1,19,20
 1 376 1 376 26 432.5 c 128,-1,21
 51 489 51 489 93.5 531.5 c 128,-1,22
 136 574 136 574 192.5 598.5 c 128,-1,23
 249 623 249 623 314 623 c 2,24,-1
 973 623 l 1,25,-1
 973 752 l 1,26,-1
 0 752 l 1,27,-1
 0 779 l 2,28,29
 0 843 0 843 25 900.5 c 128,-1,30
 50 958 50 958 92.5 1000.5 c 128,-1,31
 135 1043 135 1043 192 1068 c 128,-1,32
 249 1093 249 1093 314 1093 c 2,33,-1
 1079 1093 l 2,4,5
973 471 m 1,34,-1
 420 471 l 1,35,-1
 420 342 l 1,36,-1
 973 342 l 1,37,-1
 973 471 l 1,34,-1
EndSplineSet
EndChar

StartChar: acircumflex
Encoding: 226 226 87
Width: 1490
Flags: W
LayerCount: 2
Fore
SplineSet
324 1186 m 1,0,-1
 669 1528 l 1,1,-1
 1077 1222 l 1,2,-1
 1077 1146 l 1,3,-1
 672 1470 l 1,4,-1
 318 1114 l 1,5,-1
 324 1186 l 1,0,-1
1079 1093 m 2,6,7
 1144 1093 1144 1093 1201 1068 c 128,-1,8
 1258 1043 1258 1043 1300.5 1000.5 c 128,-1,9
 1343 958 1343 958 1367.5 900.5 c 128,-1,10
 1392 843 1392 843 1392 779 c 2,11,-1
 1392 0 l 1,12,-1
 314 0 l 2,13,14
 253 0 253 0 199 22 c 128,-1,15
 145 44 145 44 103.5 82 c 128,-1,16
 62 120 62 120 35.5 172 c 128,-1,17
 9 224 9 224 3 283 c 1,18,19
 1 291 1 291 1 297.5 c 128,-1,20
 1 304 1 304 0 312 c 1,21,22
 1 376 1 376 26 432.5 c 128,-1,23
 51 489 51 489 93.5 531.5 c 128,-1,24
 136 574 136 574 192.5 598.5 c 128,-1,25
 249 623 249 623 314 623 c 2,26,-1
 973 623 l 1,27,-1
 973 752 l 1,28,-1
 0 752 l 1,29,-1
 0 779 l 2,30,31
 0 843 0 843 25 900.5 c 128,-1,32
 50 958 50 958 92.5 1000.5 c 128,-1,33
 135 1043 135 1043 192 1068 c 128,-1,34
 249 1093 249 1093 314 1093 c 2,35,-1
 1079 1093 l 2,6,7
973 471 m 1,36,-1
 420 471 l 1,37,-1
 420 342 l 1,38,-1
 973 342 l 1,39,-1
 973 471 l 1,36,-1
EndSplineSet
EndChar

StartChar: atilde
Encoding: 227 227 88
Width: 1490
Flags: W
LayerCount: 2
Fore
SplineSet
1079 1093 m 2,0,1
 1144 1093 1144 1093 1201 1068 c 128,-1,2
 1258 1043 1258 1043 1300.5 1000.5 c 128,-1,3
 1343 958 1343 958 1367.5 900.5 c 128,-1,4
 1392 843 1392 843 1392 779 c 2,5,-1
 1392 0 l 1,6,-1
 314 0 l 2,7,8
 253 0 253 0 199 22 c 128,-1,9
 145 44 145 44 103.5 82 c 128,-1,10
 62 120 62 120 35.5 172 c 128,-1,11
 9 224 9 224 3 283 c 1,12,13
 1 291 1 291 1 297.5 c 128,-1,14
 1 304 1 304 0 312 c 1,15,16
 1 376 1 376 26 432.5 c 128,-1,17
 51 489 51 489 93.5 531.5 c 128,-1,18
 136 574 136 574 192.5 598.5 c 128,-1,19
 249 623 249 623 314 623 c 2,20,-1
 973 623 l 1,21,-1
 973 752 l 1,22,-1
 0 752 l 1,23,-1
 0 779 l 2,24,25
 0 843 0 843 25 900.5 c 128,-1,26
 50 958 50 958 92.5 1000.5 c 128,-1,27
 135 1043 135 1043 192 1068 c 128,-1,28
 249 1093 249 1093 314 1093 c 2,29,-1
 1079 1093 l 2,0,1
973 471 m 1,30,-1
 420 471 l 1,31,-1
 420 342 l 1,32,-1
 973 342 l 1,33,-1
 973 471 l 1,30,-1
EndSplineSet
EndChar

StartChar: adieresis
Encoding: 228 228 89
Width: 1490
Flags: W
LayerCount: 2
Fore
SplineSet
881 1419 m 1,0,-1
 1029 1416 l 1,1,-1
 1101 1288 l 1,2,-1
 1025 1161 l 1,3,-1
 878 1163 l 1,4,-1
 806 1292 l 1,5,-1
 881 1419 l 1,0,-1
295 1411 m 1,6,-1
 447 1434 l 1,7,-1
 543 1314 l 1,8,-1
 487 1171 l 1,9,-1
 335 1148 l 1,10,-1
 239 1268 l 1,11,-1
 295 1411 l 1,6,-1
1079 1093 m 2,12,13
 1144 1093 1144 1093 1201 1068 c 128,-1,14
 1258 1043 1258 1043 1300.5 1000.5 c 128,-1,15
 1343 958 1343 958 1367.5 900.5 c 128,-1,16
 1392 843 1392 843 1392 779 c 2,17,-1
 1392 0 l 1,18,-1
 314 0 l 2,19,20
 253 0 253 0 199 22 c 128,-1,21
 145 44 145 44 103.5 82 c 128,-1,22
 62 120 62 120 35.5 172 c 128,-1,23
 9 224 9 224 3 283 c 1,24,25
 1 291 1 291 1 297.5 c 128,-1,26
 1 304 1 304 0 312 c 1,27,28
 1 376 1 376 26 432.5 c 128,-1,29
 51 489 51 489 93.5 531.5 c 128,-1,30
 136 574 136 574 192.5 598.5 c 128,-1,31
 249 623 249 623 314 623 c 2,32,-1
 973 623 l 1,33,-1
 973 752 l 1,34,-1
 0 752 l 1,35,-1
 0 779 l 2,36,37
 0 843 0 843 25 900.5 c 128,-1,38
 50 958 50 958 92.5 1000.5 c 128,-1,39
 135 1043 135 1043 192 1068 c 128,-1,40
 249 1093 249 1093 314 1093 c 2,41,-1
 1079 1093 l 2,12,13
973 471 m 1,42,-1
 420 471 l 1,43,-1
 420 342 l 1,44,-1
 973 342 l 1,45,-1
 973 471 l 1,42,-1
EndSplineSet
EndChar

StartChar: aring
Encoding: 229 229 90
Width: 1490
Flags: W
LayerCount: 2
Fore
SplineSet
786 1449 m 2,0,1
 802 1449 802 1449 816 1443 c 128,-1,2
 830 1437 830 1437 841 1426.5 c 128,-1,3
 852 1416 852 1416 858 1401.5 c 128,-1,4
 864 1387 864 1387 864 1371 c 2,5,-1
 864 1254 l 2,6,7
 864 1238 864 1238 858 1224 c 128,-1,8
 852 1210 852 1210 841 1199 c 128,-1,9
 830 1188 830 1188 816 1182 c 128,-1,10
 802 1176 802 1176 786 1176 c 2,11,-1
 594 1176 l 2,12,13
 578 1176 578 1176 564 1182 c 128,-1,14
 550 1188 550 1188 539 1199 c 128,-1,15
 528 1210 528 1210 522 1224 c 128,-1,16
 516 1238 516 1238 516 1254 c 2,17,-1
 516 1371 l 2,18,19
 516 1387 516 1387 522 1401.5 c 128,-1,20
 528 1416 528 1416 539 1426.5 c 128,-1,21
 550 1437 550 1437 564 1443 c 128,-1,22
 578 1449 578 1449 594 1449 c 2,23,-1
 786 1449 l 2,0,1
759 1364 m 1,24,-1
 621 1364 l 1,25,-1
 621 1262 l 1,26,-1
 759 1262 l 1,27,-1
 759 1364 l 1,24,-1
1079 1093 m 2,28,29
 1144 1093 1144 1093 1201 1068 c 128,-1,30
 1258 1043 1258 1043 1300.5 1000.5 c 128,-1,31
 1343 958 1343 958 1367.5 900.5 c 128,-1,32
 1392 843 1392 843 1392 779 c 2,33,-1
 1392 0 l 1,34,-1
 314 0 l 2,35,36
 253 0 253 0 199 22 c 128,-1,37
 145 44 145 44 103.5 82 c 128,-1,38
 62 120 62 120 35.5 172 c 128,-1,39
 9 224 9 224 3 283 c 1,40,41
 1 291 1 291 1 297.5 c 128,-1,42
 1 304 1 304 0 312 c 1,43,44
 1 376 1 376 26 432.5 c 128,-1,45
 51 489 51 489 93.5 531.5 c 128,-1,46
 136 574 136 574 192.5 598.5 c 128,-1,47
 249 623 249 623 314 623 c 2,48,-1
 973 623 l 1,49,-1
 973 752 l 1,50,-1
 0 752 l 1,51,-1
 0 779 l 2,52,53
 0 843 0 843 25 900.5 c 128,-1,54
 50 958 50 958 92.5 1000.5 c 128,-1,55
 135 1043 135 1043 192 1068 c 128,-1,56
 249 1093 249 1093 314 1093 c 2,57,-1
 1079 1093 l 2,28,29
973 471 m 1,58,-1
 420 471 l 1,59,-1
 420 342 l 1,60,-1
 973 342 l 1,61,-1
 973 471 l 1,58,-1
EndSplineSet
EndChar

StartChar: ccedilla
Encoding: 231 231 91
Width: 1495
Flags: W
LayerCount: 2
Fore
SplineSet
987 -413 m 1,0,-1
 780 -413 l 1,1,-1
 780 -344 l 1,2,-1
 987 -344 l 1,3,-1
 987 -413 l 1,0,-1
1005 -203 m 1,4,-1
 1005 -347 l 1,5,-1
 930 -347 l 1,6,-1
 930 -203 l 1,7,-1
 1005 -203 l 1,4,-1
834 -197 m 1,8,-1
 834 -125 l 1,9,-1
 972 -125 l 1,10,-1
 972 -197 l 1,11,-1
 834 -197 l 1,8,-1
834 -197 m 0,12,-1
891 -125 m 1,13,-1
 828 -125 l 1,14,-1
 828 0 l 1,15,-1
 891 0 l 1,16,-1
 891 -125 l 1,13,-1
1392 342 m 1,17,-1
 1392 313 l 2,18,19
 1392 248 1392 248 1367.5 191.5 c 128,-1,20
 1343 135 1343 135 1300 92 c 128,-1,21
 1257 49 1257 49 1200 24.5 c 128,-1,22
 1143 0 1143 0 1079 0 c 2,23,-1
 314 0 l 2,24,25
 249 0 249 0 192 24.5 c 128,-1,26
 135 49 135 49 92 92 c 128,-1,27
 49 135 49 135 24.5 191.5 c 128,-1,28
 0 248 0 248 0 313 c 2,29,-1
 0 779 l 2,30,31
 0 843 0 843 24.5 900.5 c 128,-1,32
 49 958 49 958 92 1000.5 c 128,-1,33
 135 1043 135 1043 192 1068 c 128,-1,34
 249 1093 249 1093 314 1093 c 2,35,-1
 1079 1093 l 2,36,37
 1143 1093 1143 1093 1200 1068 c 128,-1,38
 1257 1043 1257 1043 1300 1000.5 c 128,-1,39
 1343 958 1343 958 1367.5 900.5 c 128,-1,40
 1392 843 1392 843 1392 779 c 2,41,-1
 1392 752 l 1,42,-1
 420 752 l 1,43,-1
 420 342 l 1,44,-1
 1392 342 l 1,17,-1
EndSplineSet
EndChar

StartChar: egrave
Encoding: 232 232 92
Width: 1480
Flags: W
LayerCount: 2
Fore
SplineSet
1074 1162 m 0,0,-1
285 1492 m 1,1,-1
 1074 1162 l 1,2,-1
 1077 1126 l 1,3,-1
 342 1372 l 1,4,-1
 285 1492 l 1,1,-1
420 471 m 1,5,-1
 420 342 l 1,6,-1
 1392 342 l 1,7,-1
 1392 313 l 2,8,9
 1392 248 1392 248 1367.5 191.5 c 128,-1,10
 1343 135 1343 135 1300 92 c 128,-1,11
 1257 49 1257 49 1200 24.5 c 128,-1,12
 1143 0 1143 0 1079 0 c 2,13,-1
 314 0 l 2,14,15
 249 0 249 0 192 24.5 c 128,-1,16
 135 49 135 49 92.5 92 c 128,-1,17
 50 135 50 135 25 191.5 c 128,-1,18
 0 248 0 248 0 313 c 2,19,-1
 0 779 l 2,20,21
 0 843 0 843 25 900.5 c 128,-1,22
 50 958 50 958 92.5 1000.5 c 128,-1,23
 135 1043 135 1043 192 1068 c 128,-1,24
 249 1093 249 1093 314 1093 c 2,25,-1
 1079 1093 l 2,26,27
 1143 1093 1143 1093 1200 1068 c 128,-1,28
 1257 1043 1257 1043 1300 1000.5 c 128,-1,29
 1343 958 1343 958 1367.5 900.5 c 128,-1,30
 1392 843 1392 843 1392 779 c 2,31,-1
 1392 471 l 1,32,-1
 420 471 l 1,5,-1
420 623 m 1,33,-1
 972 623 l 1,34,-1
 972 752 l 1,35,-1
 420 752 l 1,36,-1
 420 623 l 1,33,-1
EndSplineSet
EndChar

StartChar: eacute
Encoding: 233 233 93
Width: 1480
Flags: W
LayerCount: 2
Fore
SplineSet
321 1174 m 1,0,-1
 1197 1518 l 1,1,-1
 1104 1372 l 1,2,-1
 327 1132 l 1,3,-1
 321 1174 l 1,0,-1
420 471 m 1,4,-1
 420 342 l 1,5,-1
 1392 342 l 1,6,-1
 1392 313 l 2,7,8
 1392 248 1392 248 1367.5 191.5 c 128,-1,9
 1343 135 1343 135 1300 92 c 128,-1,10
 1257 49 1257 49 1200 24.5 c 128,-1,11
 1143 0 1143 0 1079 0 c 2,12,-1
 314 0 l 2,13,14
 249 0 249 0 192 24.5 c 128,-1,15
 135 49 135 49 92.5 92 c 128,-1,16
 50 135 50 135 25 191.5 c 128,-1,17
 0 248 0 248 0 313 c 2,18,-1
 0 779 l 2,19,20
 0 843 0 843 25 900.5 c 128,-1,21
 50 958 50 958 92.5 1000.5 c 128,-1,22
 135 1043 135 1043 192 1068 c 128,-1,23
 249 1093 249 1093 314 1093 c 2,24,-1
 1079 1093 l 2,25,26
 1143 1093 1143 1093 1200 1068 c 128,-1,27
 1257 1043 1257 1043 1300 1000.5 c 128,-1,28
 1343 958 1343 958 1367.5 900.5 c 128,-1,29
 1392 843 1392 843 1392 779 c 2,30,-1
 1392 471 l 1,31,-1
 420 471 l 1,4,-1
420 623 m 1,32,-1
 972 623 l 1,33,-1
 972 752 l 1,34,-1
 420 752 l 1,35,-1
 420 623 l 1,32,-1
EndSplineSet
EndChar

StartChar: ecircumflex
Encoding: 234 234 94
Width: 1480
Flags: W
LayerCount: 2
Fore
SplineSet
508 1338 m 1,0,-1
 765 1486 l 1,1,-1
 1084 1314 l 1,2,-1
 1148 1122 l 1,3,-1
 768 1354 l 1,4,-1
 356 1142 l 1,5,-1
 508 1338 l 1,0,-1
420 471 m 1,6,-1
 420 342 l 1,7,-1
 1392 342 l 1,8,-1
 1392 313 l 2,9,10
 1392 248 1392 248 1367.5 191.5 c 128,-1,11
 1343 135 1343 135 1300 92 c 128,-1,12
 1257 49 1257 49 1200 24.5 c 128,-1,13
 1143 0 1143 0 1079 0 c 2,14,-1
 314 0 l 2,15,16
 249 0 249 0 192 24.5 c 128,-1,17
 135 49 135 49 92.5 92 c 128,-1,18
 50 135 50 135 25 191.5 c 128,-1,19
 0 248 0 248 0 313 c 2,20,-1
 0 779 l 2,21,22
 0 843 0 843 25 900.5 c 128,-1,23
 50 958 50 958 92.5 1000.5 c 128,-1,24
 135 1043 135 1043 192 1068 c 128,-1,25
 249 1093 249 1093 314 1093 c 2,26,-1
 1079 1093 l 2,27,28
 1143 1093 1143 1093 1200 1068 c 128,-1,29
 1257 1043 1257 1043 1300 1000.5 c 128,-1,30
 1343 958 1343 958 1367.5 900.5 c 128,-1,31
 1392 843 1392 843 1392 779 c 2,32,-1
 1392 471 l 1,33,-1
 420 471 l 1,6,-1
420 623 m 1,34,-1
 972 623 l 1,35,-1
 972 752 l 1,36,-1
 420 752 l 1,37,-1
 420 623 l 1,34,-1
EndSplineSet
EndChar

StartChar: edieresis
Encoding: 235 235 95
Width: 1480
Flags: W
LayerCount: 2
Fore
SplineSet
920 1418 m 1,0,-1
 1037 1429 l 1,1,-1
 1105 1333 l 1,2,-1
 1056 1226 l 1,3,-1
 939 1216 l 1,4,-1
 871 1312 l 1,5,-1
 920 1418 l 1,0,-1
344 1400 m 1,6,-1
 444 1453 l 1,7,-1
 540 1393 l 1,8,-1
 536 1280 l 1,9,-1
 436 1226 l 1,10,-1
 340 1286 l 1,11,-1
 344 1400 l 1,6,-1
420 471 m 1,12,-1
 420 342 l 1,13,-1
 1392 342 l 1,14,-1
 1392 313 l 2,15,16
 1392 248 1392 248 1367.5 191.5 c 128,-1,17
 1343 135 1343 135 1300 92 c 128,-1,18
 1257 49 1257 49 1200 24.5 c 128,-1,19
 1143 0 1143 0 1079 0 c 2,20,-1
 314 0 l 2,21,22
 249 0 249 0 192 24.5 c 128,-1,23
 135 49 135 49 92.5 92 c 128,-1,24
 50 135 50 135 25 191.5 c 128,-1,25
 0 248 0 248 0 313 c 2,26,-1
 0 779 l 2,27,28
 0 843 0 843 25 900.5 c 128,-1,29
 50 958 50 958 92.5 1000.5 c 128,-1,30
 135 1043 135 1043 192 1068 c 128,-1,31
 249 1093 249 1093 314 1093 c 2,32,-1
 1079 1093 l 2,33,34
 1143 1093 1143 1093 1200 1068 c 128,-1,35
 1257 1043 1257 1043 1300 1000.5 c 128,-1,36
 1343 958 1343 958 1367.5 900.5 c 128,-1,37
 1392 843 1392 843 1392 779 c 2,38,-1
 1392 471 l 1,39,-1
 420 471 l 1,12,-1
420 623 m 1,40,-1
 972 623 l 1,41,-1
 972 752 l 1,42,-1
 420 752 l 1,43,-1
 420 623 l 1,40,-1
EndSplineSet
EndChar

StartChar: igrave
Encoding: 236 236 96
Width: 530
Flags: W
LayerCount: 2
Fore
SplineSet
87 1430 m 0,0,-1
24 1523 m 1,1,-1
 384 1271 l 1,2,-1
 411 1160 l 1,3,-1
 87 1430 l 1,4,-1
 24 1523 l 1,1,-1
0 1091 m 1,5,-1
 420 1091 l 1,6,-1
 420 0 l 1,7,-1
 0 0 l 1,8,-1
 0 1091 l 1,5,-1
EndSplineSet
EndChar

StartChar: iacute
Encoding: 237 237 97
Width: 530
Flags: W
LayerCount: 2
Fore
SplineSet
42 1205 m 1,0,-1
 420 1517 l 1,1,-1
 360 1322 l 1,2,-1
 21 1148 l 1,3,-1
 42 1205 l 1,0,-1
0 1091 m 1,4,-1
 420 1091 l 1,5,-1
 420 0 l 1,6,-1
 0 0 l 1,7,-1
 0 1091 l 1,4,-1
EndSplineSet
EndChar

StartChar: icircumflex
Encoding: 238 238 98
Width: 530
Flags: W
LayerCount: 2
Fore
SplineSet
69 1193 m 1,0,-1
 237 1445 l 1,1,-1
 354 1229 l 1,2,-1
 405 1115 l 1,3,-1
 247 1258 l 1,4,-1
 15 1121 l 1,5,-1
 69 1193 l 1,0,-1
0 1091 m 1,6,-1
 420 1091 l 1,7,-1
 420 0 l 1,8,-1
 0 0 l 1,9,-1
 0 1091 l 1,6,-1
EndSplineSet
EndChar

StartChar: idieresis
Encoding: 239 239 99
Width: 530
Flags: W
LayerCount: 2
Fore
SplineSet
299 1261 m 1,0,-1
 364 1265 l 1,1,-1
 400 1211 l 1,2,-1
 371 1153 l 1,3,-1
 306 1148 l 1,4,-1
 270 1202 l 1,5,-1
 299 1261 l 1,0,-1
44 1252 m 1,6,-1
 109 1256 l 1,7,-1
 145 1202 l 1,8,-1
 116 1144 l 1,9,-1
 51 1139 l 1,10,-1
 15 1193 l 1,11,-1
 44 1252 l 1,6,-1
0 1091 m 1,12,-1
 420 1091 l 1,13,-1
 420 0 l 1,14,-1
 0 0 l 1,15,-1
 0 1091 l 1,12,-1
EndSplineSet
EndChar

StartChar: ograve
Encoding: 242 242 100
Width: 1480
Flags: W
LayerCount: 2
Fore
SplineSet
153 1492 m 1,0,-1
 1134 1234 l 1,1,-1
 1200 1138 l 1,2,-1
 216 1344 l 1,3,-1
 153 1492 l 1,0,-1
1078 1093 m 2,4,5
 1143 1093 1143 1093 1200 1068 c 128,-1,6
 1257 1043 1257 1043 1300 1000.5 c 128,-1,7
 1343 958 1343 958 1367.5 900.5 c 128,-1,8
 1392 843 1392 843 1392 779 c 2,9,-1
 1392 313 l 2,10,11
 1392 248 1392 248 1367.5 191.5 c 128,-1,12
 1343 135 1343 135 1300 92 c 128,-1,13
 1257 49 1257 49 1200 24.5 c 128,-1,14
 1143 0 1143 0 1078 0 c 2,15,-1
 313 0 l 2,16,17
 248 0 248 0 191 24.5 c 128,-1,18
 134 49 134 49 91.5 92 c 128,-1,19
 49 135 49 135 24.5 191.5 c 128,-1,20
 0 248 0 248 0 313 c 2,21,-1
 0 779 l 2,22,23
 0 843 0 843 24.5 900.5 c 128,-1,24
 49 958 49 958 91.5 1000.5 c 128,-1,25
 134 1043 134 1043 191 1068 c 128,-1,26
 248 1093 248 1093 313 1093 c 2,27,-1
 1078 1093 l 2,4,5
972 752 m 1,28,-1
 420 752 l 1,29,-1
 420 342 l 1,30,-1
 972 342 l 1,31,-1
 972 752 l 1,28,-1
EndSplineSet
EndChar

StartChar: oacute
Encoding: 243 243 101
Width: 1480
Flags: W
LayerCount: 2
Fore
SplineSet
246 1218 m 1,0,-1
 1398 1524 l 1,1,-1
 1125 1344 l 1,2,-1
 231 1162 l 1,3,-1
 246 1218 l 1,0,-1
1078 1093 m 2,4,5
 1143 1093 1143 1093 1200 1068 c 128,-1,6
 1257 1043 1257 1043 1300 1000.5 c 128,-1,7
 1343 958 1343 958 1367.5 900.5 c 128,-1,8
 1392 843 1392 843 1392 779 c 2,9,-1
 1392 313 l 2,10,11
 1392 248 1392 248 1367.5 191.5 c 128,-1,12
 1343 135 1343 135 1300 92 c 128,-1,13
 1257 49 1257 49 1200 24.5 c 128,-1,14
 1143 0 1143 0 1078 0 c 2,15,-1
 313 0 l 2,16,17
 248 0 248 0 191 24.5 c 128,-1,18
 134 49 134 49 91.5 92 c 128,-1,19
 49 135 49 135 24.5 191.5 c 128,-1,20
 0 248 0 248 0 313 c 2,21,-1
 0 779 l 2,22,23
 0 843 0 843 24.5 900.5 c 128,-1,24
 49 958 49 958 91.5 1000.5 c 128,-1,25
 134 1043 134 1043 191 1068 c 128,-1,26
 248 1093 248 1093 313 1093 c 2,27,-1
 1078 1093 l 2,4,5
972 752 m 1,28,-1
 420 752 l 1,29,-1
 420 342 l 1,30,-1
 972 342 l 1,31,-1
 972 752 l 1,28,-1
EndSplineSet
EndChar

StartChar: ocircumflex
Encoding: 244 244 102
Width: 1480
Flags: W
LayerCount: 2
Fore
SplineSet
1029 1254 m 1,0,-1
 1047 1146 l 1,1,-1
 690 1324 l 1,2,-1
 297 1140 l 1,3,-1
 342 1288 l 1,4,-1
 687 1446 l 1,5,-1
 1029 1254 l 1,0,-1
1078 1093 m 2,6,7
 1143 1093 1143 1093 1200 1068 c 128,-1,8
 1257 1043 1257 1043 1300 1000.5 c 128,-1,9
 1343 958 1343 958 1367.5 900.5 c 128,-1,10
 1392 843 1392 843 1392 779 c 2,11,-1
 1392 313 l 2,12,13
 1392 248 1392 248 1367.5 191.5 c 128,-1,14
 1343 135 1343 135 1300 92 c 128,-1,15
 1257 49 1257 49 1200 24.5 c 128,-1,16
 1143 0 1143 0 1078 0 c 2,17,-1
 313 0 l 2,18,19
 248 0 248 0 191 24.5 c 128,-1,20
 134 49 134 49 91.5 92 c 128,-1,21
 49 135 49 135 24.5 191.5 c 128,-1,22
 0 248 0 248 0 313 c 2,23,-1
 0 779 l 2,24,25
 0 843 0 843 24.5 900.5 c 128,-1,26
 49 958 49 958 91.5 1000.5 c 128,-1,27
 134 1043 134 1043 191 1068 c 128,-1,28
 248 1093 248 1093 313 1093 c 2,29,-1
 1078 1093 l 2,6,7
972 752 m 1,30,-1
 420 752 l 1,31,-1
 420 342 l 1,32,-1
 972 342 l 1,33,-1
 972 752 l 1,30,-1
EndSplineSet
EndChar

StartChar: otilde
Encoding: 245 245 103
Width: 1480
Flags: W
LayerCount: 2
Fore
SplineSet
1078 1093 m 2,0,1
 1143 1093 1143 1093 1200 1068 c 128,-1,2
 1257 1043 1257 1043 1300 1000.5 c 128,-1,3
 1343 958 1343 958 1367.5 900.5 c 128,-1,4
 1392 843 1392 843 1392 779 c 2,5,-1
 1392 313 l 2,6,7
 1392 248 1392 248 1367.5 191.5 c 128,-1,8
 1343 135 1343 135 1300 92 c 128,-1,9
 1257 49 1257 49 1200 24.5 c 128,-1,10
 1143 0 1143 0 1078 0 c 2,11,-1
 313 0 l 2,12,13
 248 0 248 0 191 24.5 c 128,-1,14
 134 49 134 49 91.5 92 c 128,-1,15
 49 135 49 135 24.5 191.5 c 128,-1,16
 0 248 0 248 0 313 c 2,17,-1
 0 779 l 2,18,19
 0 843 0 843 24.5 900.5 c 128,-1,20
 49 958 49 958 91.5 1000.5 c 128,-1,21
 134 1043 134 1043 191 1068 c 128,-1,22
 248 1093 248 1093 313 1093 c 2,23,-1
 1078 1093 l 2,0,1
972 752 m 1,24,-1
 420 752 l 1,25,-1
 420 342 l 1,26,-1
 972 342 l 1,27,-1
 972 752 l 1,24,-1
EndSplineSet
EndChar

StartChar: odieresis
Encoding: 246 246 104
Width: 1480
Flags: W
LayerCount: 2
Fore
SplineSet
299 1345 m 1,0,-1
 417 1380 l 1,1,-1
 507 1296 l 1,2,-1
 479 1177 l 1,3,-1
 362 1141 l 1,4,-1
 272 1225 l 1,5,-1
 299 1345 l 1,0,-1
841 1329 m 1,6,-1
 954 1398 l 1,7,-1
 1071 1336 l 1,8,-1
 1075 1203 l 1,9,-1
 962 1133 l 1,10,-1
 845 1196 l 1,11,-1
 841 1329 l 1,6,-1
1078 1093 m 2,12,13
 1143 1093 1143 1093 1200 1068 c 128,-1,14
 1257 1043 1257 1043 1300 1000.5 c 128,-1,15
 1343 958 1343 958 1367.5 900.5 c 128,-1,16
 1392 843 1392 843 1392 779 c 2,17,-1
 1392 313 l 2,18,19
 1392 248 1392 248 1367.5 191.5 c 128,-1,20
 1343 135 1343 135 1300 92 c 128,-1,21
 1257 49 1257 49 1200 24.5 c 128,-1,22
 1143 0 1143 0 1078 0 c 2,23,-1
 313 0 l 2,24,25
 248 0 248 0 191 24.5 c 128,-1,26
 134 49 134 49 91.5 92 c 128,-1,27
 49 135 49 135 24.5 191.5 c 128,-1,28
 0 248 0 248 0 313 c 2,29,-1
 0 779 l 2,30,31
 0 843 0 843 24.5 900.5 c 128,-1,32
 49 958 49 958 91.5 1000.5 c 128,-1,33
 134 1043 134 1043 191 1068 c 128,-1,34
 248 1093 248 1093 313 1093 c 2,35,-1
 1078 1093 l 2,12,13
972 752 m 1,36,-1
 420 752 l 1,37,-1
 420 342 l 1,38,-1
 972 342 l 1,39,-1
 972 752 l 1,36,-1
EndSplineSet
EndChar

StartChar: ugrave
Encoding: 249 249 105
Width: 1480
Flags: W
LayerCount: 2
Fore
SplineSet
39 1494 m 1,0,-1
 1371 1212 l 1,1,-1
 1392 1134 l 1,2,-1
 102 1326 l 1,3,-1
 39 1494 l 1,0,-1
1392 313 m 2,4,5
 1392 248 1392 248 1367.5 191.5 c 128,-1,6
 1343 135 1343 135 1300 92 c 128,-1,7
 1257 49 1257 49 1200 24.5 c 128,-1,8
 1143 0 1143 0 1079 0 c 2,9,-1
 314 0 l 2,10,11
 249 0 249 0 192 24.5 c 128,-1,12
 135 49 135 49 92 92 c 128,-1,13
 49 135 49 135 24.5 191.5 c 128,-1,14
 0 248 0 248 0 313 c 2,15,-1
 0 1093 l 1,16,-1
 420 1093 l 1,17,-1
 420 342 l 1,18,-1
 973 342 l 1,19,-1
 973 1093 l 1,20,-1
 1392 1093 l 1,21,-1
 1392 313 l 2,4,5
EndSplineSet
EndChar

StartChar: uacute
Encoding: 250 250 106
Width: 1480
Flags: W
LayerCount: 2
Fore
SplineSet
42 1192 m 1,0,-1
 1422 1534 l 1,1,-1
 1104 1266 l 1,2,-1
 0 1132 l 1,3,-1
 42 1192 l 1,0,-1
1392 313 m 2,4,5
 1392 248 1392 248 1367.5 191.5 c 128,-1,6
 1343 135 1343 135 1300 92 c 128,-1,7
 1257 49 1257 49 1200 24.5 c 128,-1,8
 1143 0 1143 0 1079 0 c 2,9,-1
 314 0 l 2,10,11
 249 0 249 0 192 24.5 c 128,-1,12
 135 49 135 49 92 92 c 128,-1,13
 49 135 49 135 24.5 191.5 c 128,-1,14
 0 248 0 248 0 313 c 2,15,-1
 0 1093 l 1,16,-1
 420 1093 l 1,17,-1
 420 342 l 1,18,-1
 973 342 l 1,19,-1
 973 1093 l 1,20,-1
 1392 1093 l 1,21,-1
 1392 313 l 2,4,5
EndSplineSet
EndChar

StartChar: ucircumflex
Encoding: 251 251 107
Width: 1480
Flags: W
LayerCount: 2
Fore
SplineSet
0 1122 m 1,0,-1
 687 1498 l 1,1,-1
 1389 1146 l 1,2,-1
 963 1158 l 1,3,-1
 690 1330 l 1,4,-1
 414 1134 l 1,5,-1
 0 1122 l 1,0,-1
1392 313 m 2,6,7
 1392 248 1392 248 1367.5 191.5 c 128,-1,8
 1343 135 1343 135 1300 92 c 128,-1,9
 1257 49 1257 49 1200 24.5 c 128,-1,10
 1143 0 1143 0 1079 0 c 2,11,-1
 314 0 l 2,12,13
 249 0 249 0 192 24.5 c 128,-1,14
 135 49 135 49 92 92 c 128,-1,15
 49 135 49 135 24.5 191.5 c 128,-1,16
 0 248 0 248 0 313 c 2,17,-1
 0 1093 l 1,18,-1
 420 1093 l 1,19,-1
 420 342 l 1,20,-1
 973 342 l 1,21,-1
 973 1093 l 1,22,-1
 1392 1093 l 1,23,-1
 1392 313 l 2,6,7
EndSplineSet
EndChar

StartChar: udieresis
Encoding: 252 252 108
Width: 1480
Flags: W
LayerCount: 2
Fore
SplineSet
27 1474 m 1,0,-1
 414 1474 l 1,1,-1
 414 1146 l 1,2,-1
 27 1146 l 1,3,-1
 27 1474 l 1,0,-1
987 1468 m 1,4,-1
 1383 1468 l 1,5,-1
 1383 1146 l 1,6,-1
 987 1146 l 1,7,-1
 987 1468 l 1,4,-1
1392 313 m 2,8,9
 1392 248 1392 248 1367.5 191.5 c 128,-1,10
 1343 135 1343 135 1300 92 c 128,-1,11
 1257 49 1257 49 1200 24.5 c 128,-1,12
 1143 0 1143 0 1079 0 c 2,13,-1
 314 0 l 2,14,15
 249 0 249 0 192 24.5 c 128,-1,16
 135 49 135 49 92 92 c 128,-1,17
 49 135 49 135 24.5 191.5 c 128,-1,18
 0 248 0 248 0 313 c 2,19,-1
 0 1093 l 1,20,-1
 420 1093 l 1,21,-1
 420 342 l 1,22,-1
 973 342 l 1,23,-1
 973 1093 l 1,24,-1
 1392 1093 l 1,25,-1
 1392 313 l 2,8,9
EndSplineSet
EndChar

StartChar: quoteleft
Encoding: 8216 8216 109
Width: 520
Flags: W
LayerCount: 2
Fore
SplineSet
0 912 m 1,0,-1
 0 1282 l 2,1,2
 0 1345 0 1345 23.5 1401 c 128,-1,3
 47 1457 47 1457 88 1499.5 c 128,-1,4
 129 1542 129 1542 183.5 1567.5 c 128,-1,5
 238 1593 238 1593 301 1595 c 1,6,-1
 420 1596 l 1,7,-1
 420 912 l 1,8,-1
 0 912 l 1,0,-1
EndSplineSet
EndChar

StartChar: quoteright
Encoding: 8217 8217 110
Width: 520
Flags: W
LayerCount: 2
Fore
SplineSet
419 1596 m 1,0,-1
 419 1225 l 2,1,2
 419 1162 419 1162 395.5 1106 c 128,-1,3
 372 1050 372 1050 331 1008 c 128,-1,4
 290 966 290 966 235.5 940.5 c 128,-1,5
 181 915 181 915 118 912 c 1,6,-1
 0 912 l 1,7,-1
 0 1596 l 1,8,-1
 419 1596 l 1,0,-1
EndSplineSet
EndChar

StartChar: quotedblleft
Encoding: 8220 8220 111
Width: 1060
Flags: W
LayerCount: 2
Fore
SplineSet
0 912 m 1,0,-1
 0 1283 l 2,1,2
 0 1346 0 1346 23.5 1402 c 128,-1,3
 47 1458 47 1458 88 1500 c 128,-1,4
 129 1542 129 1542 183.5 1567.5 c 128,-1,5
 238 1593 238 1593 301 1596 c 1,6,-1
 419 1596 l 1,7,-1
 419 912 l 1,8,-1
 0 912 l 1,0,-1
959 912 m 1,9,-1
 959 1596 l 1,10,-1
 840 1596 l 1,11,-1
 840 1595 l 1,12,13
 777 1593 777 1593 722.5 1567.5 c 128,-1,14
 668 1542 668 1542 627 1500 c 128,-1,15
 586 1458 586 1458 562.5 1402 c 128,-1,16
 539 1346 539 1346 539 1283 c 2,17,-1
 539 912 l 1,18,-1
 959 912 l 1,9,-1
EndSplineSet
EndChar

StartChar: quotedblright
Encoding: 8221 8221 112
Width: 1060
Flags: W
LayerCount: 2
Fore
SplineSet
959 1596 m 1,0,-1
 959 1225 l 2,1,2
 959 1162 959 1162 935.5 1106 c 128,-1,3
 912 1050 912 1050 871 1007.5 c 128,-1,4
 830 965 830 965 775.5 939.5 c 128,-1,5
 721 914 721 914 658 912 c 1,6,-1
 539 912 l 1,7,-1
 539 1596 l 1,8,-1
 959 1596 l 1,0,-1
0 1596 m 1,9,-1
 0 912 l 1,10,-1
 119 912 l 1,11,12
 181 914 181 914 236 939.5 c 128,-1,13
 291 965 291 965 332 1007.5 c 128,-1,14
 373 1050 373 1050 396.5 1106 c 128,-1,15
 420 1162 420 1162 420 1225 c 2,16,-1
 420 1596 l 1,17,-1
 0 1596 l 1,9,-1
EndSplineSet
EndChar

StartChar: ampersand
Encoding: 38 38 113
Width: 1790
Flags: W
LayerCount: 2
Fore
SplineSet
447.875 1254.75 m 1,0,1
 399.125 1254.75 399.125 1254.75 356.375 1236.38 c 128,-1,2
 313.625 1218 313.625 1218 281.375 1185.75 c 128,-1,3
 249.125 1153.5 249.125 1153.5 230.75 1110.75 c 128,-1,4
 212.375 1068 212.375 1068 212.375 1020 c 2,5,-1
 212.375 856.5 l 2,6,7
 212.375 828 212.375 828 223.25 802.875 c 128,-1,8
 234.125 777.75 234.125 777.75 252.875 759 c 128,-1,9
 271.625 740.25 271.625 740.25 296.75 729.375 c 128,-1,10
 321.875 718.5 321.875 718.5 350.375 718.5 c 1,11,12
 321.875 718.5 321.875 718.5 296.75 707.625 c 128,-1,13
 271.625 696.75 271.625 696.75 252.875 678 c 128,-1,14
 234.125 659.25 234.125 659.25 223.25 633.75 c 128,-1,15
 212.375 608.25 212.375 608.25 212.375 579.75 c 2,16,-1
 212.375 414.75 l 2,17,18
 212.375 366 212.375 366 230.75 323.25 c 128,-1,19
 249.125 280.5 249.125 280.5 281.375 248.625 c 128,-1,20
 313.625 216.75 313.625 216.75 356.375 198 c 128,-1,21
 399.125 179.25 399.125 179.25 447.125 179.25 c 2,22,-1
 1251.12 179.25 l 2,23,24
 1299.88 179.25 1299.88 179.25 1342.62 197.625 c 128,-1,25
 1385.38 216 1385.38 216 1417.25 248.25 c 128,-1,26
 1449.12 280.5 1449.12 280.5 1467.88 323.25 c 128,-1,27
 1486.62 366 1486.62 366 1486.62 414.75 c 2,28,-1
 1486.62 435.75 l 1,29,-1
 597.125 435.75 l 2,30,31
 581.375 435.75 581.375 435.75 567.125 441.75 c 128,-1,32
 552.875 447.75 552.875 447.75 542.375 458.625 c 128,-1,33
 531.875 469.5 531.875 469.5 525.875 483.75 c 128,-1,34
 519.875 498 519.875 498 519.875 513.75 c 2,35,-1
 519.875 537.75 l 2,36,37
 519.875 553.5 519.875 553.5 525.875 567.75 c 128,-1,38
 531.875 582 531.875 582 542.375 592.5 c 128,-1,39
 552.875 603 552.875 603 567.125 609 c 128,-1,40
 581.375 615 581.375 615 597.125 615 c 2,41,-1
 1171.62 615 l 1,42,-1
 1171.62 820.5 l 1,43,-1
 597.125 820.5 l 2,44,45
 581.375 820.5 581.375 820.5 567.125 826.5 c 128,-1,46
 552.875 832.5 552.875 832.5 542.375 843 c 128,-1,47
 531.875 853.5 531.875 853.5 525.875 867.375 c 128,-1,48
 519.875 881.25 519.875 881.25 519.875 897 c 2,49,-1
 519.875 921.75 l 2,50,51
 519.875 937.5 519.875 937.5 525.875 951.375 c 128,-1,52
 531.875 965.25 531.875 965.25 542.375 975.75 c 128,-1,53
 552.875 986.25 552.875 986.25 567.125 992.25 c 128,-1,54
 581.375 998.25 581.375 998.25 597.125 998.25 c 2,55,-1
 1486.62 998.25 l 1,56,-1
 1486.62 1019.25 l 2,57,58
 1486.62 1068 1486.62 1068 1468.25 1110.75 c 128,-1,59
 1449.88 1153.5 1449.88 1153.5 1417.62 1185.75 c 128,-1,60
 1385.38 1218 1385.38 1218 1342.62 1236.38 c 128,-1,61
 1299.88 1254.75 1299.88 1254.75 1251.12 1254.75 c 2,62,-1
 447.875 1254.75 l 1,63,-1
 447.875 1254.75 l 1,0,1
EndSplineSet
EndChar

StartChar: quotedbl
Encoding: 34 34 114
Width: 946
Flags: W
LayerCount: 2
Fore
SplineSet
889.5 1595.4 m 1,0,-1
 889.5 1224.4 l 2,1,2
 889.5 1161.4 889.5 1161.4 866 1105.4 c 128,-1,3
 842.5 1049.4 842.5 1049.4 801.5 1007.4 c 128,-1,4
 760.5 965.4 760.5 965.4 706 939.9 c 128,-1,5
 651.5 914.4 651.5 914.4 588.5 911.4 c 1,6,-1
 470.5 911.4 l 1,7,-1
 470.5 1595.4 l 1,8,-1
 889.5 1595.4 l 1,0,-1
419 1596 m 1,9,-1
 419 1225 l 2,10,11
 419 1162 419 1162 395.5 1106 c 128,-1,12
 372 1050 372 1050 331 1008 c 128,-1,13
 290 966 290 966 235.5 940.5 c 128,-1,14
 181 915 181 915 118 912 c 1,15,-1
 0 912 l 1,16,-1
 0 1596 l 1,17,-1
 419 1596 l 1,9,-1
419 1596 m 1,18,-1
 419 1225 l 2,19,20
 419 1162 419 1162 395.5 1106 c 128,-1,21
 372 1050 372 1050 331 1008 c 128,-1,22
 290 966 290 966 235.5 940.5 c 128,-1,23
 181 915 181 915 118 912 c 1,24,-1
 0 912 l 1,25,-1
 0 1596 l 1,26,-1
 419 1596 l 1,18,-1
EndSplineSet
EndChar

StartChar: parenleft
Encoding: 40 40 115
Width: 902
Flags: W
LayerCount: 2
Fore
SplineSet
812 317.5 m 2,0,1
 812 252.5 812 252.5 787.5 195.5 c 128,-1,2
 763 138.5 763 138.5 720 96 c 128,-1,3
 677 53.5 677 53.5 620 28.5 c 0,4,5
 565.93 4.78516 565.93 4.78516 498 3.5 c 2,6,-1
 313 0 l 2,7,8
 250.665 -1.17931 250.665 -1.17931 191.5 25 c 0,9,10
 135 50 135 50 92 92.5 c 128,-1,11
 49 135 49 135 24.5 192 c 128,-1,12
 0 249 0 249 0 314 c 2,13,-1
 0 1120 l 2,14,15
 0 1185 0 1185 24.5 1242 c 128,-1,16
 49 1299 49 1299 92 1342 c 128,-1,17
 135 1385 135 1385 191.5 1409.5 c 0,18,19
 245.035 1432.71 245.035 1432.71 313 1434 c 2,20,-1
 498 1437.5 l 2,21,22
 560.257 1438.68 560.257 1438.68 620 1413 c 0,23,24
 677 1388.5 677 1388.5 720 1345.5 c 128,-1,25
 763 1302.5 763 1302.5 787.5 1245.5 c 128,-1,26
 812 1188.5 812 1188.5 812 1123.5 c 2,27,-1
 812 1095.5 l 1,28,-1
 420 1092 l 1,29,-1
 420 342 l 1,30,-1
 812 345.5 l 1,31,-1
 812 317.5 l 2,0,1
EndSplineSet
EndChar

StartChar: parenright
Encoding: 41 41 116
Width: 902
Flags: W
LayerCount: 2
Fore
SplineSet
0 317.5 m 2,0,1
 0 252.5 0 252.5 24.5 195.5 c 128,-1,2
 49 138.5 49 138.5 92 96 c 128,-1,3
 135 53.5 135 53.5 192 28.5 c 0,4,5
 246.07 4.78516 246.07 4.78516 314 3.5 c 2,6,-1
 499 0 l 2,7,8
 561.335 -1.17969 561.335 -1.17969 620.5 25 c 0,9,10
 677 50 677 50 720 92.5 c 128,-1,11
 763 135 763 135 787.5 192 c 128,-1,12
 812 249 812 249 812 314 c 2,13,-1
 812 1120 l 2,14,15
 812 1185 812 1185 787.5 1242 c 128,-1,16
 763 1299 763 1299 720 1342 c 128,-1,17
 677 1385 677 1385 620.5 1409.5 c 0,18,19
 566.966 1432.71 566.966 1432.71 499 1434 c 2,20,-1
 314 1437.5 l 2,21,22
 251.743 1438.68 251.743 1438.68 192 1413 c 0,23,24
 135 1388.5 135 1388.5 92 1345.5 c 128,-1,25
 49 1302.5 49 1302.5 24.5 1245.5 c 128,-1,26
 0 1188.5 0 1188.5 0 1123.5 c 2,27,-1
 0 1095.5 l 1,28,-1
 392 1092 l 1,29,-1
 392 342 l 1,30,-1
 0 345.5 l 1,31,-1
 0 317.5 l 2,0,1
EndSplineSet
EndChar

StartChar: questiondown
Encoding: 191 191 117
Width: 1480
Flags: W
LayerCount: 2
Fore
SplineSet
836 1255 m 1,0,-1
 417 1255 l 1,1,-1
 417 1284 l 2,2,3
 417 1347 417 1347 440.5 1403 c 128,-1,4
 464 1459 464 1459 504.5 1501 c 128,-1,5
 545 1543 545 1543 600 1568.5 c 128,-1,6
 655 1594 655 1594 717 1597 c 1,7,-1
 836 1597 l 1,8,-1
 836 1255 l 1,0,-1
314 0 m 2,9,10
 250 0 250 0 192.5 24.5 c 128,-1,11
 135 49 135 49 92.5 92 c 128,-1,12
 50 135 50 135 25 192 c 128,-1,13
 0 249 0 249 0 313 c 2,14,-1
 0 738 l 2,15,16
 0 802 0 802 24 858.5 c 128,-1,17
 48 915 48 915 90 957.5 c 128,-1,18
 132 1000 132 1000 188 1025 c 128,-1,19
 244 1050 244 1050 308 1051 c 1,20,-1
 308 1052 l 1,21,-1
 417 1052 l 1,22,-1
 417 1127 l 1,23,-1
 836 1127 l 1,24,-1
 836 805 l 1,25,-1
 420 805 l 1,26,-1
 420 343 l 1,27,-1
 972 343 l 1,28,-1
 972 505 l 1,29,-1
 1392 505 l 1,30,-1
 1392 313 l 2,31,32
 1392 249 1392 249 1367.5 192 c 128,-1,33
 1343 135 1343 135 1300 92 c 128,-1,34
 1257 49 1257 49 1200.5 24.5 c 128,-1,35
 1144 0 1144 0 1079 0 c 2,36,-1
 314 0 l 2,9,10
EndSplineSet
EndChar
